<?xml version="1.0" encoding="UTF-8" standalone="no"?>
<!DOCTYPE svg PUBLIC "-//W3C//DTD SVG 1.1//EN" "http://www.w3.org/Graphics/SVG/1.1/DTD/svg11.dtd">
<svg xmlns="http://www.w3.org/2000/svg" version="1.1" viewBox="0 0 575 745" width="575.0pt" height="745.0pt">
<path d="M 0.00 0.00 L 575.00 0.00 L 575.00 745.00 L 0.00 745.00 L 0.00 0.00 Z" fill="#282c34" />
<path d="M 262.52 14.63 C 266.85 13.23 270.38 15.90 274.98 15.89 C 284.00 15.93 292.99 13.75 302.04 13.89 C 307.61 14.17 312.64 15.83 317.97 17.26 C 324.77 19.11 331.69 19.00 338.51 20.65 C 346.37 22.39 354.04 26.38 361.46 29.53 C 368.49 32.60 375.45 34.34 382.14 37.82 C 390.91 42.22 397.17 49.60 406.05 53.93 C 415.54 58.62 425.45 61.75 434.47 67.53 C 446.16 74.65 454.18 84.79 463.13 94.88 C 468.02 100.53 473.56 105.01 478.07 110.95 C 481.26 115.01 483.61 119.49 485.97 124.05 C 489.70 131.24 494.44 137.70 498.07 144.92 C 504.05 156.47 505.78 168.37 507.69 181.06 C 509.15 191.87 508.13 203.10 508.34 214.00 C 508.07 224.04 509.56 233.11 506.59 242.60 C 503.65 251.99 500.93 261.42 499.08 271.10 C 496.59 285.06 492.26 298.98 488.53 312.68 C 486.65 319.61 485.88 326.17 482.76 332.72 C 478.14 343.29 472.77 353.50 468.00 363.99 C 463.78 373.09 463.68 382.54 460.94 391.99 C 459.51 396.93 456.87 400.91 454.26 405.26 C 449.55 412.74 447.73 422.47 444.91 430.89 C 442.36 438.76 438.77 447.85 432.48 453.47 C 425.49 459.75 415.56 462.61 406.58 464.61 C 398.34 466.62 390.03 467.45 381.64 468.59 C 371.02 469.94 360.63 469.79 349.95 469.59 C 341.39 469.48 332.83 468.31 324.48 466.44 C 315.75 464.38 307.79 459.94 302.01 453.00 C 294.81 444.65 291.55 435.10 288.12 424.85 C 286.05 419.16 283.66 412.07 279.00 407.99 C 275.41 404.65 269.78 404.36 265.22 405.25 C 260.45 406.30 257.46 410.43 255.87 414.79 C 252.16 425.97 252.63 437.06 248.06 448.09 C 244.89 456.33 238.68 463.00 230.60 466.61 C 220.43 471.54 208.08 471.25 197.00 471.28 C 184.61 471.42 172.44 471.17 160.19 468.84 C 151.22 467.23 142.77 464.39 133.55 464.49 C 133.30 471.87 133.56 479.20 134.77 486.49 C 136.56 495.36 139.90 503.29 143.43 511.55 C 147.74 521.57 149.94 532.02 153.84 542.16 C 156.39 549.01 159.72 555.43 163.12 561.88 C 167.20 569.59 170.56 577.44 175.05 584.94 C 180.79 594.68 188.07 603.01 194.61 612.39 C 198.92 618.47 202.88 624.67 207.42 630.57 C 213.68 638.83 220.86 646.50 227.98 654.01 C 232.28 658.35 236.67 662.76 241.56 666.44 C 247.82 670.68 254.17 674.46 262.07 673.47 C 270.49 672.64 275.85 666.86 282.53 662.52 C 288.58 658.29 296.64 658.84 303.05 661.95 C 311.28 665.76 317.35 670.89 327.01 670.58 C 335.02 671.09 340.93 666.42 347.24 662.24 C 354.60 656.86 362.26 651.16 368.23 644.22 C 374.37 637.33 380.10 630.18 386.50 623.50 C 389.73 620.06 393.14 616.79 396.28 613.28 C 402.84 605.70 406.87 597.07 411.15 588.13 C 418.12 573.83 429.60 565.55 434.73 550.70 C 437.37 543.55 437.18 536.26 439.10 528.98 C 441.26 520.21 444.81 512.37 447.75 503.89 C 450.42 496.46 452.80 488.96 455.56 481.56 C 462.43 463.84 468.80 445.67 473.10 427.14 C 475.34 413.00 473.61 397.31 473.24 382.98 C 473.32 372.17 477.82 362.23 481.16 352.14 C 485.64 340.18 489.01 328.68 497.75 318.97 C 499.31 323.45 501.07 326.26 504.47 329.53 C 512.68 337.39 516.78 348.13 518.61 359.14 C 520.07 367.54 518.29 374.95 517.59 383.28 C 516.87 391.60 517.51 399.72 517.40 408.01 C 517.17 418.64 514.33 428.57 510.38 438.36 C 506.86 447.14 503.20 456.24 498.39 464.39 C 494.41 471.24 489.84 477.17 486.39 484.37 C 478.98 500.27 475.75 516.70 471.89 533.68 C 469.40 545.48 466.96 558.00 461.99 568.99 C 456.39 581.58 449.62 593.66 442.36 605.36 C 436.00 615.47 427.53 622.92 420.46 632.46 C 413.35 641.68 407.66 651.69 401.57 661.57 C 397.54 668.16 392.10 673.41 385.68 677.67 C 373.59 685.73 363.23 694.13 350.42 700.42 C 335.05 708.04 318.61 712.51 301.35 710.87 C 289.88 710.06 279.55 706.64 268.62 703.42 C 259.87 700.78 251.05 697.60 243.27 692.74 C 234.87 687.54 227.23 680.70 220.04 673.95 C 209.85 663.94 199.48 654.36 191.69 642.30 C 186.00 633.46 181.38 623.91 176.27 614.73 C 169.95 602.56 161.99 591.69 154.90 580.09 C 149.91 571.91 147.34 563.21 143.39 554.57 C 140.89 548.97 138.25 543.60 136.21 537.79 C 134.05 531.91 132.64 525.94 131.19 519.86 C 128.57 507.99 125.41 495.77 123.68 483.71 C 122.57 473.14 120.78 462.67 118.69 452.26 C 116.58 442.37 111.98 434.08 108.17 424.83 C 105.22 418.25 103.19 411.84 98.94 406.08 C 95.83 401.47 91.43 396.88 89.53 391.65 C 87.49 385.98 88.82 380.03 92.17 375.18 C 98.93 365.24 108.02 356.80 115.12 347.11 C 119.42 341.06 121.06 334.16 119.74 326.81 C 120.89 327.76 122.04 328.72 123.19 329.67 C 121.95 326.68 120.84 323.81 118.73 321.30 C 116.10 318.18 113.31 315.32 111.23 311.77 C 106.19 303.43 102.64 293.94 99.11 284.88 C 95.51 275.67 93.95 266.43 90.94 257.08 C 88.86 250.47 87.35 243.71 86.56 236.83 C 85.79 230.01 84.51 223.28 82.18 216.81 C 80.09 210.71 76.85 204.38 75.93 198.00 C 74.70 186.32 76.25 175.07 78.53 163.64 C 80.12 151.97 83.87 140.39 90.82 130.78 C 89.20 135.45 87.09 139.75 86.44 144.71 C 91.58 139.97 93.70 134.20 97.43 128.44 C 101.74 121.72 106.36 114.67 111.95 108.95 C 115.55 105.24 119.25 101.50 123.29 98.29 C 129.90 92.99 137.08 88.72 143.86 83.85 C 157.82 73.80 168.43 60.36 182.69 50.68 C 190.78 45.20 199.37 40.08 208.46 36.44 C 215.80 33.55 223.09 30.80 230.78 28.95 C 236.85 27.48 242.59 26.22 248.07 23.08 C 252.87 20.45 257.39 16.47 262.52 14.63 Z" fill="#61afef" />
<path d="M 349.05 239.80 C 358.64 241.25 367.02 244.94 376.10 248.04 C 385.75 251.42 395.19 255.38 404.56 259.43 C 414.35 263.72 422.86 270.06 429.93 278.06 C 438.91 287.69 444.01 298.76 451.86 309.14 C 456.84 315.76 461.11 322.59 463.14 330.72 C 465.50 339.76 464.15 349.48 459.58 357.59 C 457.29 361.08 453.31 364.48 449.00 364.84 C 442.54 365.63 435.55 364.81 428.99 364.81 C 424.65 364.83 420.34 364.47 416.02 364.14 C 398.53 362.96 381.46 364.36 364.01 365.07 C 358.47 365.34 353.00 365.41 347.56 366.61 C 340.19 368.24 332.70 368.93 325.30 370.34 C 311.31 373.22 295.96 373.88 281.77 377.73 C 274.97 379.62 268.01 380.60 260.94 380.22 C 250.61 379.97 241.08 374.76 230.66 372.70 C 222.25 371.14 213.57 369.97 205.00 370.12 C 191.32 370.22 177.63 370.03 163.96 370.21 C 150.97 370.93 137.49 372.98 124.90 368.62 C 125.97 359.70 130.78 352.28 132.50 343.53 C 133.70 338.31 133.59 333.09 133.30 327.79 C 133.20 317.63 133.72 307.91 138.90 298.90 C 142.69 292.07 148.46 288.11 154.53 283.53 C 162.18 277.95 169.29 271.66 175.67 264.67 C 179.60 260.45 183.72 255.73 188.51 252.52 C 195.46 247.70 204.70 246.11 213.00 246.93 C 223.29 248.08 233.64 246.97 243.98 247.92 C 254.67 248.83 265.31 249.23 276.01 248.17 C 289.54 247.50 301.92 243.91 315.11 241.24 C 326.50 239.16 337.52 237.81 349.05 239.80 Z" fill="#282c34" />
<path d="M 418.75 377.22 C 425.62 378.57 432.34 380.38 436.87 386.14 C 440.43 390.49 441.00 395.56 441.18 400.99 C 441.03 409.06 439.78 416.91 437.43 424.63 C 434.85 433.32 431.74 442.54 424.49 448.50 C 417.76 454.12 407.94 456.41 399.47 457.74 C 390.22 459.42 380.88 460.37 371.49 460.73 C 363.40 461.41 355.60 461.40 347.51 460.73 C 339.30 460.35 331.28 459.24 323.52 456.44 C 316.71 453.90 310.71 449.38 306.64 443.34 C 300.43 434.40 297.38 422.60 294.81 412.12 C 293.64 406.90 292.22 400.00 295.10 395.12 C 298.42 389.86 304.92 387.17 310.63 385.45 C 322.03 381.57 334.16 382.77 346.70 381.51 C 358.05 379.97 369.40 378.32 380.76 376.80 C 393.53 375.69 406.03 375.22 418.75 377.22 Z" fill="#282c34" />
<path d="M 145.95 381.84 C 157.06 381.71 168.25 381.39 179.33 382.30 C 190.91 382.94 202.46 384.26 213.91 386.14 C 220.31 387.36 227.03 389.02 232.73 392.27 C 238.29 395.50 242.82 401.31 242.88 407.96 C 243.07 415.99 243.05 423.90 241.58 431.83 C 240.03 440.75 236.63 449.58 229.21 455.22 C 221.39 461.16 211.53 462.58 202.02 463.27 C 189.41 463.97 176.78 463.69 164.30 461.71 C 155.40 460.28 145.25 459.54 136.97 455.90 C 130.86 453.16 126.75 448.21 123.42 442.57 C 116.98 431.38 112.57 418.84 111.03 406.01 C 110.31 399.23 111.51 392.54 117.48 388.48 C 125.34 383.16 136.74 382.40 145.95 381.84 Z" fill="#282c34" />
<path d="M 304.77 529.32 C 315.86 531.07 325.30 536.64 336.30 538.29 C 344.80 539.59 353.40 540.26 362.00 540.18 C 368.42 540.32 375.32 540.38 380.81 544.21 C 386.19 547.88 388.98 553.74 389.87 560.06 C 390.93 567.61 392.19 575.14 392.92 582.73 C 377.66 578.96 362.77 568.77 347.00 569.30 C 334.04 569.72 321.06 571.62 308.35 574.12 C 292.03 577.01 275.55 577.93 259.00 577.74 C 246.63 577.62 234.22 578.04 221.87 577.38 C 217.23 577.30 212.56 577.51 207.93 577.74 C 203.60 577.90 198.89 579.69 196.40 583.38 C 194.91 586.34 194.45 589.89 193.63 593.08 C 191.66 591.40 189.54 590.07 188.28 587.76 C 185.35 582.57 183.22 576.72 182.00 570.89 C 181.00 566.43 182.28 561.89 183.65 557.65 C 185.24 553.12 187.97 548.54 192.61 546.63 C 197.00 544.74 201.81 545.98 206.32 546.65 C 213.73 547.86 222.34 548.34 229.42 545.42 C 237.35 542.40 242.94 536.66 250.85 533.84 C 258.49 530.98 267.60 530.76 275.67 530.33 C 285.59 529.76 294.82 527.58 304.77 529.32 Z" fill="#61afef" />
<path d="M 322.57 611.80 C 320.77 613.98 319.08 616.12 316.64 617.63 C 310.67 621.49 304.53 625.07 298.11 628.14 C 293.34 630.43 288.61 633.95 283.50 635.29 C 279.55 636.03 274.67 636.16 271.17 633.86 C 265.84 630.55 261.31 626.28 255.66 623.37 C 251.75 621.40 248.32 619.12 244.92 616.39 C 256.65 615.80 268.25 617.08 280.00 616.19 C 288.68 615.30 297.04 615.64 305.61 613.65 C 311.29 612.34 316.67 610.90 322.57 611.80 Z" fill="#61afef" />
</svg>