<?xml version="1.0" encoding="UTF-8" standalone="no"?>
<!DOCTYPE svg PUBLIC "-//W3C//DTD SVG 1.1//EN" "http://www.w3.org/Graphics/SVG/1.1/DTD/svg11.dtd">
<svg xmlns="http://www.w3.org/2000/svg" version="1.1" viewBox="0 0 1024 1024" width="1024.0pt" height="1024.0pt">
<path d="M 0.00 0.00 L 1024.00 0.00 L 1024.00 1024.00 L 0.00 1024.00 L 0.00 0.00 Z" fill="#ffffff" />
<path d="M 520.87 27.99 C 523.76 29.05 526.75 29.11 529.78 28.87 C 539.18 28.11 548.61 26.35 558.04 26.15 C 567.24 26.01 574.85 29.52 583.64 31.35 C 590.91 32.92 598.13 32.77 605.36 34.60 C 618.04 37.61 629.10 44.24 641.32 48.66 C 648.63 51.31 655.68 53.61 662.44 57.56 C 670.49 62.17 676.70 68.62 684.62 73.38 C 693.23 78.62 703.45 81.96 712.62 86.37 C 721.19 90.48 729.24 95.33 736.41 101.60 C 745.77 109.87 753.33 119.20 761.62 128.39 C 767.37 134.81 773.71 140.14 778.95 147.05 C 782.74 151.88 785.56 157.22 788.35 162.66 C 793.58 172.79 800.25 181.55 805.08 191.92 C 809.90 202.15 812.28 212.82 814.09 223.92 C 815.13 230.53 816.24 237.33 816.51 244.01 C 816.95 253.06 816.36 261.94 816.40 271.00 C 816.32 278.69 816.52 286.36 816.63 294.05 C 816.71 300.69 815.52 307.17 813.47 313.47 C 809.81 324.96 806.72 336.67 804.50 348.53 C 801.16 365.63 796.22 381.88 791.61 398.60 C 789.42 406.36 788.74 413.51 785.59 420.56 C 782.84 426.78 779.92 432.92 777.08 439.09 C 772.03 450.00 765.86 460.09 762.76 471.77 C 760.23 481.00 759.86 490.76 756.48 499.50 C 753.44 507.56 747.77 513.64 744.78 521.75 C 739.50 536.20 736.72 553.16 728.04 566.03 C 722.43 574.46 714.01 579.35 704.66 582.66 C 691.99 587.03 678.19 589.19 664.94 590.96 C 651.00 592.87 637.05 593.21 623.00 592.83 C 608.83 592.77 593.73 591.51 580.32 586.68 C 567.48 582.04 558.01 572.16 551.72 560.29 C 545.73 549.21 543.32 537.15 538.07 525.92 C 535.33 520.22 531.51 514.80 525.13 512.92 C 519.84 511.60 512.90 511.80 508.59 515.58 C 504.05 519.35 502.08 525.22 500.76 530.77 C 498.29 541.63 497.71 552.27 494.01 562.99 C 491.25 571.17 486.81 578.57 479.90 583.89 C 470.70 590.98 458.53 594.35 447.04 594.67 C 435.70 595.03 424.35 594.95 413.00 594.85 C 396.90 594.86 380.67 591.90 365.10 587.96 C 360.32 586.83 355.03 586.85 350.11 586.70 C 350.16 595.02 350.47 603.40 351.47 611.66 C 353.30 623.11 358.17 634.64 362.74 645.25 C 368.46 658.72 371.23 672.68 376.79 686.22 C 381.21 697.24 387.09 707.10 392.23 717.77 C 395.56 724.67 398.93 731.50 402.97 738.03 C 409.97 749.45 418.28 759.17 425.97 770.03 C 431.24 777.45 436.15 785.08 441.65 792.35 C 449.88 803.41 459.74 813.72 469.22 823.78 C 476.92 831.24 483.97 838.54 493.82 843.21 C 500.11 846.66 506.92 847.62 513.91 845.85 C 523.00 843.46 528.80 837.14 536.40 832.40 C 541.98 828.81 548.82 828.69 555.12 830.01 C 565.24 832.47 574.75 841.29 585.26 842.59 C 590.98 843.16 597.43 843.47 602.65 840.71 C 609.77 837.16 616.39 832.50 622.70 827.70 C 628.76 822.99 634.60 818.47 639.79 812.79 C 648.44 803.41 656.30 793.35 665.14 784.13 C 671.31 777.35 678.00 771.78 682.96 763.95 C 688.72 755.78 692.30 746.70 696.91 737.91 C 704.96 722.63 717.71 712.28 724.11 696.11 C 728.23 686.02 727.86 676.01 730.66 665.67 C 733.29 655.59 737.25 646.48 740.74 636.74 C 744.57 626.11 747.88 615.46 751.93 604.92 C 759.78 584.97 766.54 564.61 771.84 543.83 C 773.91 535.84 773.68 528.19 773.85 520.00 C 773.84 513.00 773.77 505.99 773.49 499.00 C 773.27 493.15 772.36 487.82 772.87 481.96 C 773.71 472.12 776.84 463.37 780.15 454.18 C 783.00 445.53 786.30 437.07 789.58 428.58 C 792.95 420.03 797.80 412.29 803.46 405.08 C 804.46 408.08 805.17 411.32 807.20 413.82 C 809.54 416.77 812.39 419.30 814.85 422.15 C 822.95 431.17 827.30 443.92 829.31 455.70 C 831.28 467.38 828.35 477.39 827.69 488.99 C 826.82 500.59 828.46 511.92 827.26 523.41 C 826.19 534.44 822.79 544.52 818.76 554.76 C 814.86 564.54 810.79 574.48 805.69 583.70 C 800.04 593.98 793.10 602.48 788.26 613.25 C 778.81 634.70 774.67 656.88 769.65 679.65 C 767.06 691.71 764.57 703.28 759.67 714.68 C 752.74 730.71 744.10 746.09 734.97 760.96 C 726.92 773.88 716.33 783.26 707.30 795.29 C 700.66 804.11 694.63 813.53 689.01 823.02 C 685.10 829.59 681.17 836.29 675.87 841.88 C 671.09 846.93 665.35 850.75 659.65 854.65 C 647.46 862.86 636.47 871.53 623.36 878.36 C 607.09 886.80 589.46 892.85 571.00 893.42 C 556.51 893.95 542.89 890.99 529.10 886.91 C 516.13 883.14 502.98 879.45 491.07 872.92 C 479.28 866.54 468.76 857.14 458.95 848.05 C 447.04 836.67 434.41 824.57 424.93 811.07 C 416.35 798.67 409.87 784.70 402.46 771.55 C 395.11 757.70 385.83 744.73 377.59 731.41 C 372.90 723.88 369.66 715.78 366.44 707.56 C 362.62 697.82 357.69 688.73 354.10 678.90 C 349.55 666.65 347.38 654.40 344.31 641.72 C 341.31 629.12 338.74 616.45 337.23 603.59 C 336.13 593.81 334.37 584.18 332.51 574.52 C 331.05 566.94 328.73 559.54 325.48 552.53 C 321.05 542.84 317.05 532.96 312.78 523.20 C 308.70 513.79 301.13 507.16 296.63 498.34 C 294.09 493.41 293.65 487.67 295.43 482.42 C 296.98 477.90 300.02 473.68 302.93 469.94 C 310.81 460.02 319.94 450.70 327.51 440.49 C 330.92 435.92 333.01 430.39 333.71 424.75 C 334.30 419.41 331.90 413.88 330.40 408.81 C 332.46 411.92 334.43 415.06 336.68 418.04 C 335.70 414.82 335.07 411.83 332.79 409.23 C 329.50 405.43 325.92 402.05 323.29 397.71 C 316.72 387.20 312.11 374.91 307.62 363.37 C 304.65 355.85 302.74 348.07 300.74 340.25 C 298.51 331.41 295.29 323.33 293.67 314.38 C 291.60 303.20 291.08 292.46 287.48 281.52 C 284.75 272.64 279.88 263.65 278.57 254.50 C 276.76 237.91 280.13 223.06 282.90 206.91 C 285.05 194.37 289.87 182.16 297.08 171.67 C 294.94 178.29 291.80 184.26 290.94 191.28 C 297.72 183.25 301.69 174.14 307.48 165.48 C 313.43 156.25 319.89 147.46 327.89 139.89 C 337.45 130.12 348.47 123.29 359.68 115.69 C 378.17 103.43 392.14 85.36 410.56 72.56 C 416.95 68.17 423.58 64.08 430.40 60.40 C 439.47 55.43 449.64 51.88 459.38 48.38 C 469.46 44.77 480.64 43.66 490.10 39.09 C 497.67 35.50 504.63 28.73 512.67 26.58 C 515.51 25.68 518.19 27.21 520.87 27.99 Z" fill="#61afef" />
<path d="M 609.05 306.24 C 619.08 306.40 629.07 309.17 638.46 312.54 C 649.17 316.52 660.03 319.97 670.57 324.43 C 681.20 328.94 691.43 332.47 701.02 338.97 C 709.10 344.17 715.68 350.83 721.92 358.07 C 730.51 368.16 736.79 380.41 744.29 390.70 C 749.56 397.86 754.67 404.71 757.96 413.06 C 762.82 424.92 762.91 438.79 757.50 450.49 C 755.38 455.54 751.11 459.89 746.03 461.96 C 741.34 463.41 735.87 462.85 731.00 462.94 C 710.13 463.02 689.96 460.30 669.02 461.59 C 656.65 461.87 644.32 462.80 631.95 463.08 C 622.39 463.31 613.51 465.89 604.04 467.02 C 587.58 469.68 571.24 472.76 554.66 474.66 C 539.26 476.32 526.59 482.68 510.95 481.88 C 499.38 482.07 490.26 477.63 479.40 474.60 C 467.29 471.04 454.61 469.45 442.00 469.34 C 422.74 469.01 403.45 469.05 384.20 469.64 C 372.94 470.38 361.91 471.28 350.63 470.14 C 346.69 469.64 342.96 468.37 339.19 467.18 C 340.65 460.12 343.17 453.50 345.84 446.83 C 349.22 437.73 350.97 427.69 350.02 417.99 C 349.41 411.45 350.39 404.54 351.21 398.02 C 352.04 390.34 355.17 382.89 359.63 376.62 C 365.48 368.75 375.10 362.86 382.73 356.73 C 392.11 349.44 400.22 340.96 408.23 332.22 C 414.73 325.29 421.91 319.56 431.36 317.33 C 443.08 314.23 453.10 316.97 465.00 316.59 C 481.37 316.28 497.67 318.71 514.00 318.42 C 523.91 318.00 533.92 317.43 543.71 315.74 C 557.61 313.38 571.50 309.50 585.40 307.37 C 593.14 306.14 601.23 306.07 609.05 306.24 Z" fill="#ffffff" />
<path d="M 671.00 476.63 C 681.69 476.22 692.57 476.25 703.17 477.79 C 709.55 478.76 716.55 480.40 722.01 483.98 C 728.13 487.98 732.07 494.76 732.60 502.04 C 733.86 516.21 730.61 530.71 726.08 544.07 C 723.30 552.01 719.89 559.77 713.58 565.57 C 707.01 571.66 698.15 574.61 689.59 576.59 C 673.89 580.01 657.99 581.33 642.00 582.29 C 628.14 582.77 614.45 582.47 600.74 580.23 C 592.35 578.76 584.36 576.58 577.20 571.80 C 571.77 568.27 567.43 563.43 564.07 557.93 C 557.59 547.53 554.29 534.58 551.20 522.80 C 549.63 516.30 548.04 507.95 550.58 501.56 C 553.86 494.61 562.68 490.78 569.60 488.58 C 581.02 484.71 592.17 484.82 604.00 483.91 C 607.89 483.66 611.79 483.59 615.68 483.28 C 633.96 481.27 652.48 477.35 671.00 476.63 Z" fill="#ffffff" />
<path d="M 375.00 483.46 C 386.46 483.48 397.60 483.20 408.99 484.42 C 427.86 486.25 448.61 487.11 466.57 493.43 C 476.49 496.95 485.29 504.19 486.39 515.27 C 487.15 527.07 486.41 539.18 483.71 550.72 C 481.63 559.44 477.85 567.97 470.87 573.86 C 463.04 580.41 453.01 583.30 443.01 584.30 C 423.17 586.27 403.22 585.53 383.54 582.45 C 374.31 580.95 364.35 579.86 355.64 576.36 C 348.27 573.37 343.01 567.75 338.87 561.13 C 333.43 552.30 329.28 542.63 326.30 532.71 C 323.67 523.69 321.52 514.60 322.49 505.13 C 322.89 501.31 324.42 497.85 327.02 495.02 C 331.42 490.14 338.19 487.83 344.42 486.40 C 354.44 484.28 364.77 483.42 375.00 483.46 Z" fill="#ffffff" />
<path d="M 562.88 667.16 C 573.04 668.58 581.65 672.71 591.29 675.71 C 602.04 679.12 613.74 680.05 624.96 680.51 C 633.96 680.82 644.31 679.96 652.86 683.16 C 661.20 686.27 666.83 693.83 668.54 702.43 C 670.57 712.82 671.47 723.45 673.23 733.89 C 662.76 730.64 652.69 726.43 642.48 722.50 C 636.34 720.16 630.36 718.05 623.77 717.37 C 599.45 715.63 574.68 722.35 551.35 725.37 C 543.91 726.38 536.48 726.49 529.00 726.94 C 517.77 727.74 506.29 727.26 495.00 727.32 C 484.69 727.27 474.28 727.70 464.00 727.05 C 457.02 726.59 449.95 727.01 442.96 727.31 C 437.91 727.42 432.71 729.55 429.29 733.30 C 426.68 737.01 426.24 742.45 425.13 746.78 C 422.16 744.29 419.31 741.99 417.59 738.41 C 414.58 732.37 411.98 725.92 410.72 719.27 C 409.57 713.38 410.84 707.42 412.87 701.87 C 414.88 696.59 418.32 691.06 423.75 688.80 C 429.58 686.38 436.84 688.28 442.88 689.06 C 452.05 690.24 462.18 690.62 470.81 686.79 C 480.32 682.84 486.94 676.03 496.68 672.70 C 506.96 669.08 519.21 669.04 530.03 668.12 C 541.18 667.39 551.84 665.55 562.88 667.16 Z" fill="#61afef" />
<path d="M 585.69 769.83 C 580.18 776.64 572.93 780.16 565.62 784.62 C 559.18 788.28 552.34 791.12 546.01 795.00 C 539.07 799.09 530.71 801.72 523.01 798.00 C 515.85 794.16 510.00 788.06 502.66 784.37 C 497.74 781.93 493.19 779.13 489.06 775.47 C 501.13 774.36 513.02 776.27 525.08 775.62 C 535.81 775.11 546.56 774.46 557.24 773.32 C 567.30 772.31 575.38 768.10 585.69 769.83 Z" fill="#61afef" />
</svg>