<?xml version="1.0" encoding="UTF-8" standalone="no"?>
<!DOCTYPE svg PUBLIC "-//W3C//DTD SVG 1.1//EN" "http://www.w3.org/Graphics/SVG/1.1/DTD/svg11.dtd">
<svg xmlns="http://www.w3.org/2000/svg" version="1.1" viewBox="0 0 1024 1024" width="1024.0pt" height="1024.0pt" xmlns:xlink="http://www.w3.org/1999/xlink">
<defs>
<path d="M 0.00 0.00 L 1024.00 0.00 L 1024.00 1024.00 L 0.00 1024.00 L 0.00 0.00 Z M 455.95 49.19 C 454.55 49.77 453.18 50.41 451.79 51.02 C 450.39 51.57 449.00 52.14 447.59 52.68 C 435.34 56.90 423.73 63.78 412.94 70.90 C 395.88 81.99 381.62 99.29 365.59 111.47 C 354.24 119.85 342.03 126.50 331.45 136.44 C 325.79 141.84 320.32 147.27 315.69 153.61 C 310.75 160.32 306.05 167.38 301.82 174.56 C 300.47 174.88 299.13 175.20 297.78 175.52 C 300.61 170.40 303.43 165.41 305.12 159.77 C 300.79 162.97 298.09 166.86 296.06 171.80 C 293.56 177.58 290.10 182.53 288.01 188.51 C 285.77 194.13 284.05 199.87 283.07 205.85 C 281.15 218.36 277.94 231.43 278.21 244.00 C 278.26 248.95 278.00 254.09 279.44 258.82 C 281.88 267.73 286.16 275.92 288.54 284.88 C 291.78 296.32 291.97 307.81 294.76 319.34 C 295.81 323.71 297.24 327.93 298.54 332.22 C 301.52 341.79 303.21 351.52 306.75 360.95 C 311.22 372.46 315.57 384.29 321.70 395.04 C 323.34 398.04 325.13 400.93 327.45 403.48 C 329.97 406.36 333.32 409.21 335.09 412.60 C 336.91 416.12 336.53 420.25 336.56 424.10 C 335.54 426.84 334.42 429.54 333.07 432.14 C 335.14 427.76 337.12 423.10 336.19 418.15 C 335.28 412.87 332.06 408.97 328.07 405.62 C 329.93 411.27 333.69 417.87 333.32 423.88 C 332.63 428.53 330.60 432.96 329.52 437.54 C 321.38 449.54 310.43 460.10 301.63 471.64 C 299.31 474.76 297.03 478.16 295.62 481.80 C 294.25 485.37 294.04 489.22 294.69 492.98 C 295.89 498.27 298.96 502.60 302.15 506.86 C 305.22 510.89 308.10 515.05 311.03 519.18 C 316.15 530.72 320.93 542.40 326.09 553.92 C 327.68 559.58 329.95 565.02 331.26 570.74 C 333.53 581.52 335.27 592.38 337.02 603.24 C 338.75 618.79 342.19 633.98 345.90 649.16 C 348.40 660.83 351.03 672.35 355.64 683.41 C 358.73 691.20 362.65 698.58 365.75 706.36 C 368.68 713.70 371.35 720.93 375.24 727.85 C 380.56 737.29 387.10 746.11 392.67 755.43 C 394.63 758.76 396.80 761.95 399.00 765.13 C 403.13 772.64 407.23 780.16 411.29 787.71 C 415.86 796.36 420.38 804.79 426.17 812.72 C 436.02 826.31 448.91 838.39 461.04 849.96 C 469.66 857.69 477.92 865.18 487.94 871.07 C 501.36 879.27 517.81 883.58 532.86 887.94 C 547.70 892.19 562.53 894.69 578.00 892.88 C 587.19 891.99 596.22 889.80 604.84 886.49 C 613.31 883.53 621.38 879.63 629.14 875.15 C 639.68 869.04 648.92 861.88 659.05 855.05 C 665.98 850.30 673.55 845.42 678.70 838.68 C 683.70 832.56 687.17 825.96 691.28 819.27 C 696.25 811.02 701.51 803.00 707.30 795.31 C 716.40 783.12 727.39 773.48 735.37 760.37 C 744.35 745.68 752.83 730.53 759.69 714.73 C 763.50 705.91 766.00 696.52 768.04 687.15 C 772.22 668.46 775.76 649.70 781.42 631.37 C 784.14 623.95 786.33 616.87 789.87 609.98 C 794.10 601.54 799.56 594.41 804.28 586.28 C 809.47 577.50 813.53 567.73 817.40 558.29 C 821.38 548.36 825.46 537.69 826.87 527.05 C 828.71 517.70 827.54 507.52 827.61 498.00 C 827.28 486.72 829.66 476.02 830.29 465.01 C 830.14 454.38 827.40 443.69 822.97 434.05 C 820.80 429.34 817.99 425.16 814.52 421.31 C 811.78 418.13 808.89 415.08 805.96 412.09 C 805.55 409.18 805.00 406.31 804.21 403.48 C 798.59 408.80 795.55 415.17 791.84 421.84 C 789.65 425.73 788.35 429.90 787.29 434.22 C 784.74 441.15 781.77 447.86 779.96 455.04 C 776.03 465.05 772.99 475.17 772.64 486.00 C 772.68 490.01 773.51 493.96 773.53 497.99 C 773.91 511.35 774.24 524.84 773.18 538.17 C 772.99 539.04 772.80 539.91 772.62 540.78 C 767.13 563.18 759.91 584.95 751.39 606.38 C 746.72 618.87 742.86 631.66 738.05 644.11 C 733.77 655.30 729.69 665.93 728.36 677.98 C 727.40 686.28 725.59 694.33 721.58 701.72 C 715.31 713.73 705.99 722.63 699.09 734.11 C 694.49 741.65 691.41 750.10 686.90 757.80 C 684.37 762.13 681.32 766.16 678.53 770.36 C 670.36 778.60 662.32 786.94 654.73 795.72 C 648.47 803.13 642.16 810.59 635.34 817.49 C 626.55 824.82 617.95 831.93 608.06 837.78 C 604.95 839.57 601.73 841.15 598.45 842.58 C 593.40 842.71 587.99 843.19 583.03 842.13 C 574.22 839.97 566.13 833.51 557.52 830.49 C 553.62 829.05 549.03 829.09 544.92 829.32 C 540.25 829.50 536.43 832.04 532.76 834.67 C 527.10 838.84 521.53 843.54 514.65 845.54 C 510.53 846.82 506.02 846.60 501.76 846.32 C 495.24 844.49 489.84 840.97 484.10 837.51 C 479.58 833.54 475.21 829.39 470.71 825.39 C 461.38 815.27 451.73 805.59 443.39 794.59 C 435.98 785.16 429.81 774.97 422.63 765.39 C 416.95 757.68 410.97 750.30 405.71 742.29 C 400.59 734.69 396.52 726.67 392.58 718.43 C 387.76 708.29 382.02 698.71 377.69 688.33 C 371.43 674.05 368.68 658.83 362.47 644.53 C 357.86 634.11 353.70 623.63 351.54 612.39 C 352.08 603.86 349.95 595.63 350.85 587.16 C 355.35 587.45 359.85 587.57 364.35 587.75 C 368.11 588.77 371.92 589.75 375.75 590.44 C 384.42 592.26 393.17 593.63 401.99 594.44 C 416.31 595.02 430.67 594.93 445.00 594.66 C 457.68 594.68 471.77 590.97 481.52 582.52 C 489.33 575.77 493.36 566.65 495.83 556.82 C 498.43 546.86 498.91 536.47 501.85 526.70 C 503.48 521.56 505.97 516.59 510.93 513.95 C 514.45 511.80 519.13 512.05 523.10 512.37 C 529.21 513.15 533.93 518.01 536.75 523.18 C 541.85 532.49 544.27 543.62 548.57 553.44 C 553.64 565.64 561.77 577.00 573.52 583.49 C 584.59 589.62 598.56 591.31 610.99 592.49 C 627.77 592.87 644.87 593.49 661.54 591.33 C 675.14 589.61 689.25 587.56 702.35 583.41 C 711.27 580.49 719.86 576.32 725.90 568.91 C 732.52 560.79 736.05 549.98 739.14 540.11 C 741.73 534.29 742.99 528.11 745.13 522.15 C 748.05 514.04 753.88 508.04 756.88 500.04 C 760.38 490.91 760.63 481.08 763.33 471.50 C 766.41 460.24 772.60 450.14 777.46 439.58 C 780.73 432.45 784.10 425.36 787.19 418.15 C 788.69 414.75 789.31 411.28 789.46 407.58 C 789.93 405.55 790.44 403.52 790.86 401.47 C 796.19 381.95 802.31 362.27 805.71 342.33 C 807.49 334.28 809.67 326.36 811.87 318.41 C 814.35 311.37 816.72 303.54 816.61 296.02 C 816.69 287.68 816.32 279.34 816.42 271.00 C 816.48 260.38 817.08 249.58 816.29 238.98 C 814.22 223.34 812.12 206.95 805.44 192.51 C 800.27 181.08 792.43 171.19 786.96 159.85 C 782.79 151.19 776.94 143.58 769.98 136.99 C 759.56 126.96 751.08 115.35 740.60 105.40 C 732.91 97.65 723.84 91.77 714.06 87.00 C 703.77 81.85 693.57 78.87 684.04 72.95 C 677.41 68.90 672.05 63.64 665.60 59.41 C 658.01 54.29 648.70 51.14 640.08 48.19 C 629.91 44.17 620.29 39.11 609.90 35.65 C 602.49 32.10 595.37 32.91 587.50 31.50 C 580.05 30.40 573.14 27.52 565.77 26.22 C 558.44 24.79 550.36 26.17 542.95 26.92 C 536.66 27.55 530.30 28.56 523.98 28.55 C 520.77 28.73 518.39 24.88 515.34 25.47 C 506.47 26.66 499.68 33.01 492.24 37.32 C 480.78 43.80 467.32 43.96 455.95 49.19 Z M 519.74 668.71 C 511.06 669.42 502.54 670.07 494.38 673.40 C 487.44 676.23 482.10 680.82 475.50 684.39 C 470.13 687.31 464.19 689.44 458.03 689.64 C 452.21 689.87 446.40 689.71 440.67 688.62 C 434.76 687.67 427.67 686.26 422.17 689.38 C 416.25 692.91 413.47 699.25 411.48 705.55 C 409.66 710.45 409.32 714.53 410.36 719.68 C 411.79 727.79 415.14 734.82 418.88 742.07 C 422.36 748.37 424.91 754.35 431.93 757.43 C 431.04 749.12 427.72 742.19 429.44 733.61 L 429.84 732.91 C 432.96 730.39 436.31 728.54 440.17 727.41 C 446.89 727.38 453.53 727.09 460.24 726.67 C 463.85 727.18 467.36 727.38 471.00 727.33 C 487.67 727.25 504.33 727.32 521.00 727.31 C 524.61 727.35 528.16 726.92 531.75 726.68 C 544.06 726.92 556.03 724.99 568.12 722.97 C 584.99 719.84 602.84 716.78 620.03 717.25 C 629.93 717.28 639.74 721.67 648.85 725.22 C 651.19 726.23 653.47 727.36 655.85 728.30 C 661.94 730.89 668.15 732.90 674.41 735.00 C 673.80 731.91 673.07 728.84 672.45 725.76 C 671.46 718.71 670.88 711.66 669.25 704.71 C 667.96 695.62 663.14 687.55 654.66 683.59 C 645.11 679.47 634.11 680.81 623.97 680.33 C 615.40 679.82 607.17 679.32 598.82 677.48 C 588.29 675.28 578.83 670.38 568.31 667.96 C 560.68 666.03 552.87 666.20 545.06 666.67 C 536.64 667.50 528.19 668.15 519.74 668.71 Z M 567.84 770.94 C 564.48 771.64 561.13 772.47 557.76 773.08 C 554.16 773.50 550.55 773.72 546.94 773.92 C 537.28 774.35 527.64 775.44 518.00 775.31 C 507.69 775.34 497.85 773.83 487.52 775.02 C 493.02 779.86 499.17 783.81 506.08 786.30 C 509.38 789.10 512.87 791.54 516.55 793.81 C 520.64 796.97 524.50 799.85 529.95 799.74 C 538.04 800.34 544.41 796.04 551.09 792.18 C 555.97 790.11 560.84 788.13 565.40 785.37 C 569.75 782.71 574.07 780.00 578.48 777.43 C 581.83 775.48 584.43 772.80 586.77 769.74 C 580.13 767.47 574.31 769.30 567.84 770.94 Z" id="p0" />
<path d="M 515.34 25.47 C 518.39 24.88 520.77 28.73 523.98 28.55 C 530.30 28.56 536.66 27.55 542.95 26.92 C 550.36 26.17 558.44 24.79 565.77 26.22 C 573.14 27.52 580.05 30.40 587.50 31.50 C 595.37 32.91 602.49 32.10 609.90 35.65 C 604.24 35.13 598.66 34.40 592.95 34.46 C 581.95 34.22 572.73 28.22 562.00 28.23 C 553.65 28.06 545.30 28.23 536.99 29.26 C 530.99 29.63 525.12 30.11 519.23 31.43 C 513.98 32.39 509.69 34.95 504.97 37.23 C 506.23 34.74 507.52 32.25 508.77 29.75 C 505.18 30.95 501.89 32.49 498.89 34.81 C 493.07 39.16 487.91 43.39 480.52 44.78 C 472.30 46.10 464.10 47.47 455.95 49.19 C 467.32 43.96 480.78 43.80 492.24 37.32 C 499.68 33.01 506.47 26.66 515.34 25.47 Z" id="p1" />
<path d="M 536.99 29.26 C 545.30 28.23 553.65 28.06 562.00 28.23 C 572.73 28.22 581.95 34.22 592.95 34.46 C 598.66 34.40 604.24 35.13 609.90 35.65 C 620.29 39.11 629.91 44.17 640.08 48.19 C 637.12 47.79 634.25 47.53 631.42 46.52 C 628.93 45.74 626.36 44.44 623.75 44.20 C 622.47 45.17 621.38 46.45 620.27 47.61 C 621.57 48.06 622.87 48.52 624.16 48.99 C 618.86 49.97 613.50 50.54 608.16 51.34 C 608.70 52.57 609.24 53.80 609.78 55.02 C 605.26 54.98 600.59 54.63 596.10 55.23 C 592.68 55.58 590.14 59.36 587.98 61.73 C 593.20 68.29 595.04 76.09 595.79 84.29 C 594.90 82.21 594.01 80.12 593.13 78.04 C 591.68 79.94 589.36 81.57 589.83 84.24 C 590.96 92.25 591.15 100.12 596.28 106.65 C 597.21 100.14 595.59 93.79 596.40 87.29 C 597.18 89.47 598.16 91.34 598.45 93.72 C 599.16 99.14 601.61 103.69 603.13 108.87 C 607.60 123.55 606.19 140.60 604.44 155.67 C 603.18 168.42 605.95 180.79 605.81 193.36 C 601.19 183.76 597.09 172.80 596.99 162.04 C 596.79 156.18 597.56 150.31 596.28 144.59 C 595.40 140.61 593.91 136.71 592.51 132.88 C 591.27 136.86 590.38 140.87 589.99 145.02 C 589.29 152.46 587.98 159.51 588.03 166.99 C 587.95 172.13 588.51 177.60 587.59 182.66 C 587.20 185.46 584.14 187.41 582.30 189.34 C 579.34 192.03 578.30 195.44 576.77 199.01 C 574.14 195.07 571.11 191.14 569.15 186.81 C 567.85 184.08 568.68 181.36 569.22 178.56 C 570.75 172.03 572.41 165.65 572.93 158.94 C 573.93 144.23 576.77 129.65 577.96 114.99 C 578.35 108.99 581.40 103.95 582.05 98.02 C 582.64 92.83 583.27 87.44 582.74 82.22 C 581.88 75.43 577.05 68.89 573.43 63.23 C 570.75 65.62 568.28 68.13 565.90 70.82 C 568.65 74.19 572.98 78.44 573.09 83.02 C 573.28 86.33 570.70 87.76 568.24 89.25 C 561.91 92.66 554.84 95.08 547.97 97.16 C 544.36 92.86 541.48 88.15 538.88 83.19 C 537.84 84.10 536.79 85.01 535.75 85.93 C 535.06 85.60 534.37 85.28 533.67 84.96 C 532.72 85.47 531.76 85.97 530.80 86.47 C 529.87 85.78 528.95 85.09 528.03 84.39 C 527.95 87.72 527.82 91.05 527.61 94.38 C 525.86 90.39 524.42 86.35 524.13 81.96 C 523.77 76.89 523.63 71.61 525.93 66.94 C 527.77 63.13 530.10 59.58 531.90 55.74 C 522.37 58.46 516.32 68.89 512.78 77.46 C 511.45 76.73 510.12 76.00 508.79 75.27 C 506.04 78.95 504.16 83.04 501.95 87.02 C 500.08 90.56 494.87 91.48 492.68 94.62 C 491.03 97.32 490.26 100.66 489.34 103.67 C 488.37 103.25 487.40 102.82 486.44 102.39 C 485.37 106.67 484.73 111.01 484.26 115.39 C 483.64 121.18 481.80 127.02 480.11 132.61 C 478.87 129.78 477.74 126.94 477.15 123.89 C 475.57 115.73 474.04 107.53 472.02 99.46 C 471.25 101.65 470.47 103.84 469.73 106.05 C 468.69 105.88 467.65 105.72 466.61 105.57 C 465.94 109.44 465.23 113.30 464.39 117.14 C 461.61 107.29 462.86 97.45 465.84 87.82 C 467.15 84.01 465.05 81.26 465.05 77.60 C 465.61 74.10 466.98 70.71 467.88 67.28 C 465.36 65.59 462.55 62.87 459.30 63.25 C 454.68 63.56 450.01 65.17 445.61 66.56 C 439.49 68.55 433.56 70.53 428.17 74.15 C 420.77 79.13 413.62 83.34 407.21 89.21 C 402.75 93.10 398.66 97.43 394.14 101.25 C 392.54 102.67 390.74 102.68 388.75 102.96 C 388.59 103.71 388.42 104.47 388.26 105.23 C 378.29 109.61 370.05 117.15 360.05 121.26 C 362.67 118.87 365.38 116.59 368.11 114.32 C 367.27 113.37 366.43 112.42 365.59 111.47 C 381.62 99.29 395.88 81.99 412.94 70.90 C 423.73 63.78 435.34 56.90 447.59 52.68 C 456.36 52.26 465.31 52.51 474.01 51.35 C 480.93 50.45 485.95 47.02 492.19 44.28 C 488.89 51.09 482.36 56.63 481.85 64.00 C 481.17 69.27 481.04 74.58 481.62 79.87 C 485.23 76.15 487.22 71.74 489.17 67.03 C 490.81 64.05 492.39 61.03 494.15 58.12 C 497.84 53.41 501.49 48.75 504.33 43.46 C 509.00 38.89 513.21 34.30 519.23 31.43 C 525.12 30.11 530.99 29.63 536.99 29.26 Z" id="p2" />
<path d="M 508.77 29.75 C 507.52 32.25 506.23 34.74 504.97 37.23 C 509.69 34.95 513.98 32.39 519.23 31.43 C 513.21 34.30 509.00 38.89 504.33 43.46 C 500.93 45.35 498.35 47.89 495.84 50.81 C 496.49 47.87 496.89 45.13 498.56 42.55 C 500.57 39.42 502.79 36.45 504.50 33.13 C 502.61 33.63 500.73 34.15 498.89 34.81 C 501.89 32.49 505.18 30.95 508.77 29.75 Z" id="p3" />
<path d="M 504.50 33.13 C 502.79 36.45 500.57 39.42 498.56 42.55 C 496.89 45.13 496.49 47.87 495.84 50.81 C 498.35 47.89 500.93 45.35 504.33 43.46 C 501.49 48.75 497.84 53.41 494.15 58.12 C 492.48 59.35 490.71 60.50 488.97 61.64 C 490.22 57.05 491.45 52.43 492.99 47.93 C 495.90 44.42 498.24 40.80 500.06 36.61 C 495.17 38.68 491.11 41.89 486.70 44.75 C 482.27 47.62 477.23 48.57 472.01 48.61 C 465.16 48.64 458.52 49.87 451.79 51.02 C 453.18 50.41 454.55 49.77 455.95 49.19 C 464.10 47.47 472.30 46.10 480.52 44.78 C 487.91 43.39 493.07 39.16 498.89 34.81 C 500.73 34.15 502.61 33.63 504.50 33.13 Z" id="p4" />
<path d="M 500.06 36.61 C 498.24 40.80 495.90 44.42 492.99 47.93 C 491.08 50.19 489.22 52.26 488.05 55.02 C 486.10 59.57 485.53 64.99 484.99 69.87 C 486.40 68.94 487.80 68.02 489.17 67.03 C 487.22 71.74 485.23 76.15 481.62 79.87 C 481.04 74.58 481.17 69.27 481.85 64.00 C 482.36 56.63 488.89 51.09 492.19 44.28 C 485.95 47.02 480.93 50.45 474.01 51.35 C 465.31 52.51 456.36 52.26 447.59 52.68 C 449.00 52.14 450.39 51.57 451.79 51.02 C 458.52 49.87 465.16 48.64 472.01 48.61 C 477.23 48.57 482.27 47.62 486.70 44.75 C 491.11 41.89 495.17 38.68 500.06 36.61 Z" id="p5" />
<path d="M 623.75 44.20 C 626.36 44.44 628.93 45.74 631.42 46.52 C 634.25 47.53 637.12 47.79 640.08 48.19 C 648.70 51.14 658.01 54.29 665.60 59.41 C 672.05 63.64 677.41 68.90 684.04 72.95 C 693.57 78.87 703.77 81.85 714.06 87.00 C 723.84 91.77 732.91 97.65 740.60 105.40 C 751.08 115.35 759.56 126.96 769.98 136.99 C 769.37 137.62 768.77 138.26 768.17 138.90 C 770.61 142.79 773.23 146.59 775.56 150.55 C 776.17 151.78 777.30 153.51 777.01 154.95 C 776.38 155.80 775.60 156.56 774.86 157.32 C 774.61 158.27 774.37 159.22 774.13 160.17 C 771.26 158.66 768.48 157.02 765.73 155.31 C 765.16 155.60 764.59 155.90 764.02 156.19 C 765.26 160.42 766.76 164.56 768.31 168.69 C 771.29 176.65 772.19 185.05 774.93 193.10 C 776.19 196.80 776.63 200.29 776.52 204.18 C 774.68 202.09 772.89 199.95 771.17 197.76 C 770.25 204.56 765.31 207.59 762.33 213.34 C 759.72 217.99 758.68 223.06 758.17 228.30 C 766.28 223.99 768.84 215.59 777.90 212.63 C 778.51 220.78 777.34 228.54 773.97 235.99 C 770.09 244.47 764.64 252.21 760.64 260.64 C 758.72 264.80 758.90 269.21 758.68 273.71 C 760.80 271.71 762.77 269.77 765.30 268.27 C 768.53 266.34 771.77 265.31 774.48 262.54 C 778.96 257.84 783.31 253.24 786.82 247.75 C 788.95 244.34 792.05 241.49 793.90 237.93 C 795.19 233.82 794.01 228.34 795.91 224.02 C 797.27 221.00 799.56 218.27 801.56 215.65 C 803.07 218.00 804.48 220.28 804.89 223.11 C 806.25 231.08 805.74 239.47 806.45 247.57 C 807.23 256.18 806.62 264.38 808.52 272.45 C 809.82 278.41 812.55 283.47 813.44 289.52 C 814.31 295.69 814.31 301.96 813.07 308.08 C 812.38 311.50 812.06 314.93 811.87 318.41 C 809.67 326.36 807.49 334.28 805.71 342.33 C 804.78 332.74 809.19 324.78 809.80 315.42 C 806.75 312.94 804.71 309.96 800.90 308.51 C 799.71 315.45 796.29 321.55 791.80 326.89 C 789.63 329.89 785.84 327.20 783.13 326.53 C 781.01 330.24 778.96 333.86 776.05 337.03 C 771.02 342.42 765.25 348.47 762.21 355.25 C 760.44 359.16 761.69 362.70 763.49 366.30 C 765.35 369.79 766.95 373.31 768.09 377.10 C 766.73 376.35 765.39 375.58 764.04 374.80 C 763.39 374.91 762.73 375.01 762.07 375.12 C 757.97 367.84 757.27 360.26 754.83 352.33 C 756.34 351.84 757.85 351.34 759.35 350.84 C 764.21 341.50 771.57 335.16 778.94 327.93 C 783.87 323.10 786.01 316.87 787.01 310.20 C 784.67 310.82 782.34 311.44 780.01 312.06 C 782.38 307.48 785.74 303.16 787.41 298.28 C 788.49 295.45 786.09 292.68 784.65 290.44 C 777.25 292.82 772.26 297.60 766.38 302.39 C 761.12 306.73 757.63 312.04 752.93 316.94 C 748.86 321.30 744.11 326.53 742.39 332.37 C 741.47 335.05 742.83 337.74 743.75 340.22 C 746.08 345.72 747.88 351.40 750.15 356.92 C 751.61 360.36 751.99 363.95 752.18 367.64 C 749.90 367.88 747.62 368.12 745.33 368.35 C 744.87 371.29 744.14 374.42 744.32 377.40 C 744.73 381.65 746.34 385.89 747.12 390.12 C 746.80 391.14 746.47 392.16 746.13 393.17 C 742.74 388.74 739.54 384.18 736.77 379.33 C 735.85 375.98 734.72 372.98 733.19 369.86 C 731.58 366.52 731.16 363.05 730.25 359.50 C 729.37 355.88 727.11 353.00 725.15 349.91 C 721.38 344.18 719.03 338.46 714.86 333.17 C 712.36 329.97 709.57 327.46 707.46 323.94 C 705.72 321.09 704.54 318.31 701.73 316.27 C 694.53 311.14 686.02 307.34 677.12 306.65 C 669.15 305.95 661.18 305.86 653.27 304.48 C 648.21 303.55 643.19 303.81 638.09 304.15 C 631.67 304.65 626.55 302.17 620.17 301.66 C 606.32 300.83 593.87 303.68 580.50 304.80 C 575.74 305.40 571.01 303.30 566.49 301.95 C 566.74 300.10 568.34 296.81 566.59 295.39 C 563.13 291.82 557.31 290.15 552.72 288.53 C 550.66 282.28 551.56 275.76 548.71 269.92 C 544.63 272.25 542.65 272.82 537.94 272.05 C 539.85 265.06 543.53 259.30 544.13 251.93 C 531.69 262.87 523.92 279.49 517.14 294.33 C 511.36 295.37 505.53 295.91 499.68 296.42 C 499.24 297.49 498.80 298.55 498.36 299.62 C 492.58 300.32 486.76 300.48 480.96 301.03 C 474.98 301.33 472.32 307.79 466.19 309.14 C 455.09 311.58 443.62 312.46 432.45 314.60 C 424.56 315.93 417.43 321.40 410.81 325.70 C 407.66 327.93 404.22 328.76 400.57 329.79 C 400.49 330.47 400.41 331.14 400.32 331.81 C 393.23 335.31 385.46 339.20 379.80 344.78 C 376.46 347.99 374.81 351.91 372.84 355.97 C 369.87 361.94 364.95 365.63 360.82 370.84 C 355.72 377.28 351.62 384.02 351.97 392.55 C 351.65 397.24 350.89 401.83 350.31 406.48 C 349.56 403.04 348.89 399.68 349.22 396.13 C 349.55 391.06 351.27 386.39 352.02 381.45 C 352.63 377.91 350.56 374.74 349.29 371.58 C 347.26 367.45 347.44 362.39 348.01 357.94 C 348.38 355.39 349.95 353.37 351.23 351.21 C 353.79 347.32 354.49 342.47 355.94 337.97 C 352.52 337.60 349.04 336.97 345.60 337.03 C 343.39 336.93 341.97 339.34 340.92 340.95 C 338.59 345.09 336.99 349.48 333.97 353.23 C 329.85 349.51 326.61 345.64 320.91 344.34 C 320.28 347.88 320.00 351.42 319.93 355.01 C 319.82 360.51 318.64 365.82 318.98 371.34 C 318.54 371.25 318.11 371.17 317.67 371.09 C 316.45 369.23 315.21 367.38 313.93 365.56 C 312.59 373.01 316.51 379.83 319.69 386.30 C 322.62 392.24 329.13 391.48 333.60 396.40 C 339.84 403.21 340.07 412.60 340.76 421.32 C 340.59 423.22 340.43 425.14 340.17 427.03 C 338.78 430.06 337.47 433.11 336.10 436.15 C 328.06 448.83 317.31 460.19 307.99 472.02 C 305.49 474.84 303.11 477.74 300.95 480.83 C 298.38 485.04 298.12 489.39 297.34 494.13 C 296.30 490.08 295.61 485.99 295.62 481.80 C 297.03 478.16 299.31 474.76 301.63 471.64 C 310.43 460.10 321.38 449.54 329.52 437.54 C 330.79 435.77 332.05 434.08 333.07 432.14 C 334.42 429.54 335.54 426.84 336.56 424.10 C 339.68 417.89 339.30 410.31 335.40 404.56 C 332.04 400.37 326.26 397.74 321.70 395.04 C 315.57 384.29 311.22 372.46 306.75 360.95 C 303.21 351.52 301.52 341.79 298.54 332.22 C 297.24 327.93 295.81 323.71 294.76 319.34 C 291.97 307.81 291.78 296.32 288.54 284.88 C 286.16 275.92 281.88 267.73 279.44 258.82 C 278.00 254.09 278.26 248.95 278.21 244.00 C 277.94 231.43 281.15 218.36 283.07 205.85 C 284.23 207.31 285.39 208.77 286.55 210.24 C 289.09 205.39 290.73 200.31 292.17 195.05 C 294.42 189.19 297.50 183.74 299.96 177.97 C 300.58 176.83 301.20 175.69 301.82 174.56 C 306.05 167.38 310.75 160.32 315.69 153.61 C 320.32 147.27 325.79 141.84 331.45 136.44 C 342.03 126.50 354.24 119.85 365.59 111.47 C 366.43 112.42 367.27 113.37 368.11 114.32 C 365.38 116.59 362.67 118.87 360.05 121.26 C 370.05 117.15 378.29 109.61 388.26 105.23 C 388.42 104.47 388.59 103.71 388.75 102.96 C 390.74 102.68 392.54 102.67 394.14 101.25 C 398.66 97.43 402.75 93.10 407.21 89.21 C 413.62 83.34 420.77 79.13 428.17 74.15 C 433.56 70.53 439.49 68.55 445.61 66.56 C 450.01 65.17 454.68 63.56 459.30 63.25 C 462.55 62.87 465.36 65.59 467.88 67.28 C 466.98 70.71 465.61 74.10 465.05 77.60 C 465.05 81.26 467.15 84.01 465.84 87.82 C 462.86 97.45 461.61 107.29 464.39 117.14 C 465.23 113.30 465.94 109.44 466.61 105.57 C 467.65 105.72 468.69 105.88 469.73 106.05 C 470.47 103.84 471.25 101.65 472.02 99.46 C 474.04 107.53 475.57 115.73 477.15 123.89 C 477.74 126.94 478.87 129.78 480.11 132.61 C 481.80 127.02 483.64 121.18 484.26 115.39 C 484.73 111.01 485.37 106.67 486.44 102.39 C 487.40 102.82 488.37 103.25 489.34 103.67 C 490.26 100.66 491.03 97.32 492.68 94.62 C 494.87 91.48 500.08 90.56 501.95 87.02 C 504.16 83.04 506.04 78.95 508.79 75.27 C 510.12 76.00 511.45 76.73 512.78 77.46 C 516.32 68.89 522.37 58.46 531.90 55.74 C 530.10 59.58 527.77 63.13 525.93 66.94 C 523.63 71.61 523.77 76.89 524.13 81.96 C 524.42 86.35 525.86 90.39 527.61 94.38 C 527.82 91.05 527.95 87.72 528.03 84.39 C 528.95 85.09 529.87 85.78 530.80 86.47 C 531.76 85.97 532.72 85.47 533.67 84.96 C 534.37 85.28 535.06 85.60 535.75 85.93 C 536.79 85.01 537.84 84.10 538.88 83.19 C 541.48 88.15 544.36 92.86 547.97 97.16 C 554.84 95.08 561.91 92.66 568.24 89.25 C 570.70 87.76 573.28 86.33 573.09 83.02 C 572.98 78.44 568.65 74.19 565.90 70.82 C 568.28 68.13 570.75 65.62 573.43 63.23 C 577.05 68.89 581.88 75.43 582.74 82.22 C 583.27 87.44 582.64 92.83 582.05 98.02 C 581.40 103.95 578.35 108.99 577.96 114.99 C 576.77 129.65 573.93 144.23 572.93 158.94 C 572.41 165.65 570.75 172.03 569.22 178.56 C 568.68 181.36 567.85 184.08 569.15 186.81 C 571.11 191.14 574.14 195.07 576.77 199.01 C 578.30 195.44 579.34 192.03 582.30 189.34 C 584.14 187.41 587.20 185.46 587.59 182.66 C 588.51 177.60 587.95 172.13 588.03 166.99 C 587.98 159.51 589.29 152.46 589.99 145.02 C 590.38 140.87 591.27 136.86 592.51 132.88 C 593.91 136.71 595.40 140.61 596.28 144.59 C 597.56 150.31 596.79 156.18 596.99 162.04 C 597.09 172.80 601.19 183.76 605.81 193.36 C 605.95 180.79 603.18 168.42 604.44 155.67 C 606.19 140.60 607.60 123.55 603.13 108.87 C 601.61 103.69 599.16 99.14 598.45 93.72 C 598.16 91.34 597.18 89.47 596.40 87.29 C 595.59 93.79 597.21 100.14 596.28 106.65 C 591.15 100.12 590.96 92.25 589.83 84.24 C 589.36 81.57 591.68 79.94 593.13 78.04 C 594.01 80.12 594.90 82.21 595.79 84.29 C 595.04 76.09 593.20 68.29 587.98 61.73 C 590.14 59.36 592.68 55.58 596.10 55.23 C 600.59 54.63 605.26 54.98 609.78 55.02 C 609.24 53.80 608.70 52.57 608.16 51.34 C 613.50 50.54 618.86 49.97 624.16 48.99 C 622.87 48.52 621.57 48.06 620.27 47.61 C 621.38 46.45 622.47 45.17 623.75 44.20 Z M 607.95 173.84 C 609.01 171.51 610.26 169.44 612.00 167.55 C 612.99 170.47 613.93 173.41 614.88 176.34 C 616.09 172.48 617.06 168.58 617.63 164.58 C 618.75 156.63 620.71 148.91 622.20 141.03 C 626.18 148.04 627.76 155.85 632.23 162.56 C 636.75 153.41 640.21 143.02 642.03 132.97 C 642.80 128.38 643.42 123.23 642.41 118.64 C 641.29 113.74 636.63 110.12 634.70 105.32 C 631.96 98.49 631.51 90.67 629.19 83.68 C 628.57 81.84 627.53 80.28 626.22 78.86 C 623.34 83.14 622.88 87.73 621.29 92.48 C 619.83 96.94 615.82 100.25 614.73 104.67 C 613.58 109.61 614.21 115.13 613.03 120.08 C 612.27 123.22 610.78 125.99 609.88 129.04 C 609.02 132.07 608.87 135.42 608.54 138.55 C 607.85 146.14 606.58 153.71 606.13 161.32 C 605.83 165.66 606.87 169.69 607.95 173.84 Z M 502.77 146.61 C 504.39 149.85 506.15 153.07 507.51 156.44 C 509.01 160.18 509.11 163.95 509.41 167.92 C 510.06 167.87 510.72 167.81 511.37 167.75 C 512.13 165.25 513.17 162.66 513.42 160.05 C 513.47 156.97 512.59 153.83 512.08 150.81 C 516.09 153.85 519.57 156.71 519.95 162.13 C 520.81 171.03 514.85 176.31 511.64 184.00 C 514.45 182.77 517.16 181.53 519.46 179.45 C 522.01 177.33 524.35 174.32 527.52 173.23 C 529.89 172.20 532.95 171.89 534.38 169.52 C 536.36 166.66 537.87 163.46 539.25 160.28 C 542.09 153.44 542.36 146.56 543.71 139.29 C 542.30 139.83 540.89 140.36 539.49 140.90 C 538.91 132.03 535.46 122.78 528.03 117.44 C 528.24 122.52 529.49 127.34 530.88 132.20 C 522.80 126.56 514.43 121.66 505.86 116.81 C 505.29 119.79 504.65 122.75 503.89 125.68 C 499.15 123.84 498.58 119.99 496.56 115.88 C 492.91 124.72 493.08 135.13 489.06 144.15 C 487.05 147.92 483.76 150.23 482.42 154.50 C 480.36 160.84 479.13 167.48 477.94 174.03 C 477.38 177.90 476.39 182.22 478.26 185.89 C 480.44 186.47 481.54 184.07 482.69 182.67 C 485.87 177.68 488.15 172.10 490.83 166.83 C 494.62 159.49 496.40 152.33 502.77 146.61 Z M 699.99 253.17 C 702.42 253.58 705.66 253.72 707.68 255.26 C 709.37 256.90 709.75 260.01 710.42 262.19 C 715.00 259.18 718.18 255.68 721.09 251.07 C 725.87 244.40 728.66 236.76 733.04 229.87 C 732.68 241.53 726.75 253.48 722.06 264.04 C 718.68 270.72 716.47 277.80 713.77 284.75 C 711.81 289.91 708.34 294.25 706.24 299.30 C 704.66 302.28 707.71 305.03 709.03 307.50 C 716.07 298.45 717.39 285.73 724.23 276.20 C 732.57 264.42 740.44 253.44 743.10 238.86 C 743.90 234.60 742.25 230.75 741.35 226.56 C 740.43 222.41 738.96 218.47 737.50 214.49 C 735.74 209.56 735.93 204.54 735.80 199.38 C 734.42 198.69 733.05 198.00 731.67 197.31 C 730.58 192.18 728.97 187.78 730.30 182.51 C 732.80 172.02 732.79 160.86 730.18 150.39 C 728.98 151.01 727.79 151.64 726.59 152.26 C 726.95 151.03 727.30 149.79 727.65 148.55 C 725.44 149.16 722.79 149.54 720.89 150.87 C 719.24 152.73 718.57 155.57 717.62 157.83 C 715.52 163.95 711.49 167.99 710.43 174.51 C 708.90 182.86 712.65 191.93 713.59 200.39 C 714.70 207.97 713.51 215.46 710.47 222.46 C 707.68 229.42 702.80 235.58 700.61 242.65 C 699.49 246.14 699.70 249.58 699.99 253.17 Z M 629.12 192.34 C 627.35 187.90 625.97 183.33 624.51 178.78 C 620.92 186.71 621.36 194.47 620.81 202.93 C 618.88 201.60 616.94 200.27 615.00 198.95 C 614.54 199.32 614.09 199.68 613.64 200.05 C 614.09 207.45 614.82 214.78 615.74 222.14 C 610.55 216.09 607.40 209.15 603.94 202.06 C 601.83 197.41 600.06 192.70 597.10 188.48 C 594.68 193.67 594.83 198.97 594.75 204.55 C 593.23 205.53 591.71 206.49 590.19 207.46 C 589.72 214.29 590.23 221.12 589.90 227.95 C 589.38 237.76 583.96 244.50 581.39 254.40 C 579.89 259.23 579.80 263.58 580.78 268.52 C 586.43 266.96 588.94 262.81 592.61 258.73 C 593.36 259.11 594.11 259.49 594.86 259.87 C 596.66 259.86 599.17 259.30 600.77 260.18 C 605.26 263.40 606.94 269.13 608.71 274.08 C 612.38 270.65 616.03 267.90 618.26 263.21 C 623.50 251.90 629.32 240.88 634.64 229.61 C 636.57 225.51 637.86 221.19 638.79 216.76 C 641.55 203.86 644.61 190.85 646.08 177.73 C 644.67 177.52 643.26 177.31 641.85 177.10 C 640.75 175.66 639.65 174.22 638.50 172.81 C 634.51 178.96 633.27 186.22 629.12 192.34 Z M 375.17 296.98 C 375.54 297.78 375.91 298.57 376.28 299.37 C 379.40 296.62 381.81 293.65 384.02 290.13 C 386.18 293.85 388.08 298.56 391.40 301.37 C 394.68 301.00 397.91 299.39 400.58 297.50 C 403.70 295.27 404.63 291.49 404.91 287.86 C 405.22 282.02 403.77 275.91 402.83 270.16 C 401.26 260.78 398.27 252.64 398.10 243.04 C 397.93 232.34 398.31 221.63 398.14 210.94 C 398.12 207.35 396.88 204.32 395.01 201.32 C 391.94 205.63 391.06 210.44 390.38 215.57 C 389.13 224.87 385.77 233.51 384.82 242.81 C 384.50 245.44 384.31 248.24 383.57 250.78 C 382.47 254.29 380.45 257.16 379.70 260.86 C 378.15 268.72 380.79 277.27 379.85 284.89 C 379.30 289.40 377.26 293.05 375.17 296.98 Z M 370.26 204.48 C 367.60 209.73 367.05 215.46 364.88 220.86 C 362.88 225.99 360.74 230.98 359.30 236.31 C 357.27 243.51 356.71 250.82 354.91 258.06 C 353.41 264.24 351.12 270.60 350.71 276.96 C 350.29 281.74 352.29 286.71 353.89 291.15 C 355.00 293.85 356.36 297.56 359.09 298.99 C 361.99 298.05 364.58 295.84 366.82 293.83 C 370.31 290.62 373.36 287.35 374.80 282.72 C 376.81 276.36 376.15 268.97 375.62 262.42 C 374.97 254.91 374.92 247.38 374.50 239.87 C 374.36 236.39 373.00 233.44 371.83 230.24 C 370.75 227.44 371.60 223.85 371.75 220.91 C 372.35 215.35 371.62 209.87 370.26 204.48 Z M 626.94 279.98 C 629.69 279.77 632.43 279.58 635.18 279.38 C 632.86 280.41 630.54 281.44 628.22 282.46 C 628.13 283.29 628.04 284.11 627.95 284.94 C 639.63 289.04 650.40 293.01 663.00 292.98 C 664.92 292.92 666.65 292.24 668.31 291.33 C 673.32 288.53 677.74 284.94 681.82 280.93 C 680.34 279.18 678.88 277.42 677.40 275.68 C 679.54 265.10 684.13 255.58 687.52 245.40 C 690.06 238.10 693.70 231.28 696.17 223.96 C 688.71 229.95 683.50 237.59 678.95 245.90 C 675.50 252.12 672.22 258.08 666.39 262.43 C 667.29 255.22 669.36 248.97 668.88 242.05 C 668.52 237.07 667.81 232.13 667.65 227.13 C 664.77 231.31 662.32 237.36 657.95 240.08 C 655.12 241.61 653.57 239.59 651.23 238.28 C 647.82 243.08 645.46 248.47 641.96 253.21 C 642.79 245.87 646.43 239.47 647.29 232.14 C 648.04 227.56 647.42 223.06 646.31 218.59 C 643.90 222.46 641.80 226.48 639.19 230.24 C 637.07 233.27 635.05 236.34 633.59 239.77 C 629.68 249.10 626.64 258.83 625.89 268.97 C 625.62 272.72 626.23 276.32 626.94 279.98 Z" id="p6" />
<path d="M 492.99 47.93 C 491.45 52.43 490.22 57.05 488.97 61.64 C 490.71 60.50 492.48 59.35 494.15 58.12 C 492.39 61.03 490.81 64.05 489.17 67.03 C 487.80 68.02 486.40 68.94 484.99 69.87 C 485.53 64.99 486.10 59.57 488.05 55.02 C 489.22 52.26 491.08 50.19 492.99 47.93 Z" id="p7" />
<path d="M 626.22 78.86 C 627.53 80.28 628.57 81.84 629.19 83.68 C 631.51 90.67 631.96 98.49 634.70 105.32 C 636.63 110.12 641.29 113.74 642.41 118.64 C 643.42 123.23 642.80 128.38 642.03 132.97 C 640.21 143.02 636.75 153.41 632.23 162.56 C 627.76 155.85 626.18 148.04 622.20 141.03 C 620.71 148.91 618.75 156.63 617.63 164.58 C 617.06 168.58 616.09 172.48 614.88 176.34 C 613.93 173.41 612.99 170.47 612.00 167.55 C 610.26 169.44 609.01 171.51 607.95 173.84 C 606.87 169.69 605.83 165.66 606.13 161.32 C 606.58 153.71 607.85 146.14 608.54 138.55 C 608.87 135.42 609.02 132.07 609.88 129.04 C 610.78 125.99 612.27 123.22 613.03 120.08 C 614.21 115.13 613.58 109.61 614.73 104.67 C 615.82 100.25 619.83 96.94 621.29 92.48 C 622.88 87.73 623.34 83.14 626.22 78.86 Z" id="p8" />
<path d="M 496.56 115.88 C 498.58 119.99 499.15 123.84 503.89 125.68 C 504.65 122.75 505.29 119.79 505.86 116.81 C 514.43 121.66 522.80 126.56 530.88 132.20 C 529.49 127.34 528.24 122.52 528.03 117.44 C 535.46 122.78 538.91 132.03 539.49 140.90 C 540.89 140.36 542.30 139.83 543.71 139.29 C 542.36 146.56 542.09 153.44 539.25 160.28 C 537.87 163.46 536.36 166.66 534.38 169.52 C 532.95 171.89 529.89 172.20 527.52 173.23 C 524.35 174.32 522.01 177.33 519.46 179.45 C 517.16 181.53 514.45 182.77 511.64 184.00 C 514.85 176.31 520.81 171.03 519.95 162.13 C 519.57 156.71 516.09 153.85 512.08 150.81 C 512.59 153.83 513.47 156.97 513.42 160.05 C 513.17 162.66 512.13 165.25 511.37 167.75 C 510.72 167.81 510.06 167.87 509.41 167.92 C 509.11 163.95 509.01 160.18 507.51 156.44 C 506.15 153.07 504.39 149.85 502.77 146.61 C 496.40 152.33 494.62 159.49 490.83 166.83 C 488.15 172.10 485.87 177.68 482.69 182.67 C 481.54 184.07 480.44 186.47 478.26 185.89 C 476.39 182.22 477.38 177.90 477.94 174.03 C 479.13 167.48 480.36 160.84 482.42 154.50 C 483.76 150.23 487.05 147.92 489.06 144.15 C 493.08 135.13 492.91 124.72 496.56 115.88 Z" id="p9" />
<path d="M 769.98 136.99 C 776.94 143.58 782.79 151.19 786.96 159.85 C 792.43 171.19 800.27 181.08 805.44 192.51 C 812.12 206.95 814.22 223.34 816.29 238.98 C 817.08 249.58 816.48 260.38 816.42 271.00 C 816.32 279.34 816.69 287.68 816.61 296.02 C 816.72 303.54 814.35 311.37 811.87 318.41 C 812.06 314.93 812.38 311.50 813.07 308.08 C 814.31 301.96 814.31 295.69 813.44 289.52 C 812.55 283.47 809.82 278.41 808.52 272.45 C 806.62 264.38 807.23 256.18 806.45 247.57 C 805.74 239.47 806.25 231.08 804.89 223.11 C 804.48 220.28 803.07 218.00 801.56 215.65 C 799.56 218.27 797.27 221.00 795.91 224.02 C 794.01 228.34 795.19 233.82 793.90 237.93 C 792.05 241.49 788.95 244.34 786.82 247.75 C 783.31 253.24 778.96 257.84 774.48 262.54 C 771.77 265.31 768.53 266.34 765.30 268.27 C 762.77 269.77 760.80 271.71 758.68 273.71 C 758.90 269.21 758.72 264.80 760.64 260.64 C 764.64 252.21 770.09 244.47 773.97 235.99 C 777.34 228.54 778.51 220.78 777.90 212.63 C 768.84 215.59 766.28 223.99 758.17 228.30 C 758.68 223.06 759.72 217.99 762.33 213.34 C 765.31 207.59 770.25 204.56 771.17 197.76 C 772.89 199.95 774.68 202.09 776.52 204.18 C 776.63 200.29 776.19 196.80 774.93 193.10 C 772.19 185.05 771.29 176.65 768.31 168.69 C 766.76 164.56 765.26 160.42 764.02 156.19 C 764.59 155.90 765.16 155.60 765.73 155.31 C 768.48 157.02 771.26 158.66 774.13 160.17 C 774.37 159.22 774.61 158.27 774.86 157.32 C 775.60 156.56 776.38 155.80 777.01 154.95 C 777.30 153.51 776.17 151.78 775.56 150.55 C 773.23 146.59 770.61 142.79 768.17 138.90 C 768.77 138.26 769.37 137.62 769.98 136.99 Z" id="p10" />
<path d="M 727.65 148.55 C 727.30 149.79 726.95 151.03 726.59 152.26 C 727.79 151.64 728.98 151.01 730.18 150.39 C 732.79 160.86 732.80 172.02 730.30 182.51 C 728.97 187.78 730.58 192.18 731.67 197.31 C 733.05 198.00 734.42 198.69 735.80 199.38 C 735.93 204.54 735.74 209.56 737.50 214.49 C 738.96 218.47 740.43 222.41 741.35 226.56 C 742.25 230.75 743.90 234.60 743.10 238.86 C 740.44 253.44 732.57 264.42 724.23 276.20 C 717.39 285.73 716.07 298.45 709.03 307.50 C 707.71 305.03 704.66 302.28 706.24 299.30 C 708.34 294.25 711.81 289.91 713.77 284.75 C 716.47 277.80 718.68 270.72 722.06 264.04 C 726.75 253.48 732.68 241.53 733.04 229.87 C 728.66 236.76 725.87 244.40 721.09 251.07 C 718.18 255.68 715.00 259.18 710.42 262.19 C 709.75 260.01 709.37 256.90 707.68 255.26 C 705.66 253.72 702.42 253.58 699.99 253.17 C 699.70 249.58 699.49 246.14 700.61 242.65 C 702.80 235.58 707.68 229.42 710.47 222.46 C 713.51 215.46 714.70 207.97 713.59 200.39 C 712.65 191.93 708.90 182.86 710.43 174.51 C 711.49 167.99 715.52 163.95 717.62 157.83 C 718.57 155.57 719.24 152.73 720.89 150.87 C 722.79 149.54 725.44 149.16 727.65 148.55 Z" id="p11" />
<path d="M 305.12 159.77 C 303.43 165.41 300.61 170.40 297.78 175.52 C 299.13 175.20 300.47 174.88 301.82 174.56 C 301.20 175.69 300.58 176.83 299.96 177.97 C 296.92 182.42 294.33 187.17 291.05 191.45 C 291.57 183.96 294.98 178.24 297.89 171.54 C 297.28 171.63 296.67 171.71 296.06 171.80 C 298.09 166.86 300.79 162.97 305.12 159.77 Z" id="p12" />
<path d="M 297.89 171.54 C 294.98 178.24 291.57 183.96 291.05 191.45 C 294.33 187.17 296.92 182.42 299.96 177.97 C 297.50 183.74 294.42 189.19 292.17 195.05 C 290.90 196.52 289.55 197.88 288.20 199.27 C 288.16 195.69 288.06 192.10 288.01 188.51 C 290.10 182.53 293.56 177.58 296.06 171.80 C 296.67 171.71 297.28 171.63 297.89 171.54 Z" id="p13" />
<path d="M 638.50 172.81 C 639.65 174.22 640.75 175.66 641.85 177.10 C 643.26 177.31 644.67 177.52 646.08 177.73 C 644.61 190.85 641.55 203.86 638.79 216.76 C 637.86 221.19 636.57 225.51 634.64 229.61 C 629.32 240.88 623.50 251.90 618.26 263.21 C 616.03 267.90 612.38 270.65 608.71 274.08 C 606.94 269.13 605.26 263.40 600.77 260.18 C 599.17 259.30 596.66 259.86 594.86 259.87 C 594.11 259.49 593.36 259.11 592.61 258.73 C 588.94 262.81 586.43 266.96 580.78 268.52 C 579.80 263.58 579.89 259.23 581.39 254.40 C 583.96 244.50 589.38 237.76 589.90 227.95 C 590.23 221.12 589.72 214.29 590.19 207.46 C 591.71 206.49 593.23 205.53 594.75 204.55 C 594.83 198.97 594.68 193.67 597.10 188.48 C 600.06 192.70 601.83 197.41 603.94 202.06 C 607.40 209.15 610.55 216.09 615.74 222.14 C 614.82 214.78 614.09 207.45 613.64 200.05 C 614.09 199.68 614.54 199.32 615.00 198.95 C 616.94 200.27 618.88 201.60 620.81 202.93 C 621.36 194.47 620.92 186.71 624.51 178.78 C 625.97 183.33 627.35 187.90 629.12 192.34 C 633.27 186.22 634.51 178.96 638.50 172.81 Z" id="p14" />
<path d="M 288.01 188.51 C 288.06 192.10 288.16 195.69 288.20 199.27 C 289.55 197.88 290.90 196.52 292.17 195.05 C 290.73 200.31 289.09 205.39 286.55 210.24 C 285.39 208.77 284.23 207.31 283.07 205.85 C 284.05 199.87 285.77 194.13 288.01 188.51 Z" id="p15" />
<path d="M 395.01 201.32 C 396.88 204.32 398.12 207.35 398.14 210.94 C 398.31 221.63 397.93 232.34 398.10 243.04 C 398.27 252.64 401.26 260.78 402.83 270.16 C 403.77 275.91 405.22 282.02 404.91 287.86 C 404.63 291.49 403.70 295.27 400.58 297.50 C 397.91 299.39 394.68 301.00 391.40 301.37 C 388.08 298.56 386.18 293.85 384.02 290.13 C 381.81 293.65 379.40 296.62 376.28 299.37 C 375.91 298.57 375.54 297.78 375.17 296.98 C 377.26 293.05 379.30 289.40 379.85 284.89 C 380.79 277.27 378.15 268.72 379.70 260.86 C 380.45 257.16 382.47 254.29 383.57 250.78 C 384.31 248.24 384.50 245.44 384.82 242.81 C 385.77 233.51 389.13 224.87 390.38 215.57 C 391.06 210.44 391.94 205.63 395.01 201.32 Z" id="p16" />
<path d="M 370.26 204.48 C 371.62 209.87 372.35 215.35 371.75 220.91 C 371.60 223.85 370.75 227.44 371.83 230.24 C 373.00 233.44 374.36 236.39 374.50 239.87 C 374.92 247.38 374.97 254.91 375.62 262.42 C 376.15 268.97 376.81 276.36 374.80 282.72 C 373.36 287.35 370.31 290.62 366.82 293.83 C 364.58 295.84 361.99 298.05 359.09 298.99 C 356.36 297.56 355.00 293.85 353.89 291.15 C 352.29 286.71 350.29 281.74 350.71 276.96 C 351.12 270.60 353.41 264.24 354.91 258.06 C 356.71 250.82 357.27 243.51 359.30 236.31 C 360.74 230.98 362.88 225.99 364.88 220.86 C 367.05 215.46 367.60 209.73 370.26 204.48 Z" id="p17" />
<path d="M 646.31 218.59 C 647.42 223.06 648.04 227.56 647.29 232.14 C 646.43 239.47 642.79 245.87 641.96 253.21 C 645.46 248.47 647.82 243.08 651.23 238.28 C 653.57 239.59 655.12 241.61 657.95 240.08 C 662.32 237.36 664.77 231.31 667.65 227.13 C 667.81 232.13 668.52 237.07 668.88 242.05 C 669.36 248.97 667.29 255.22 666.39 262.43 C 672.22 258.08 675.50 252.12 678.95 245.90 C 683.50 237.59 688.71 229.95 696.17 223.96 C 693.70 231.28 690.06 238.10 687.52 245.40 C 684.13 255.58 679.54 265.10 677.40 275.68 C 678.88 277.42 680.34 279.18 681.82 280.93 C 677.74 284.94 673.32 288.53 668.31 291.33 C 666.65 292.24 664.92 292.92 663.00 292.98 C 650.40 293.01 639.63 289.04 627.95 284.94 C 628.04 284.11 628.13 283.29 628.22 282.46 C 630.54 281.44 632.86 280.41 635.18 279.38 C 632.43 279.58 629.69 279.77 626.94 279.98 C 626.23 276.32 625.62 272.72 625.89 268.97 C 626.64 258.83 629.68 249.10 633.59 239.77 C 635.05 236.34 637.07 233.27 639.19 230.24 C 641.80 226.48 643.90 222.46 646.31 218.59 Z" id="p18" />
<path d="M 544.13 251.93 C 543.53 259.30 539.85 265.06 537.94 272.05 C 542.65 272.82 544.63 272.25 548.71 269.92 C 551.56 275.76 550.66 282.28 552.72 288.53 C 557.31 290.15 563.13 291.82 566.59 295.39 C 568.34 296.81 566.74 300.10 566.49 301.95 C 571.01 303.30 575.74 305.40 580.50 304.80 C 593.87 303.68 606.32 300.83 620.17 301.66 C 626.55 302.17 631.67 304.65 638.09 304.15 C 643.19 303.81 648.21 303.55 653.27 304.48 C 661.18 305.86 669.15 305.95 677.12 306.65 C 686.02 307.34 694.53 311.14 701.73 316.27 C 704.54 318.31 705.72 321.09 707.46 323.94 C 709.57 327.46 712.36 329.97 714.86 333.17 C 719.03 338.46 721.38 344.18 725.15 349.91 C 727.11 353.00 729.37 355.88 730.25 359.50 C 731.16 363.05 731.58 366.52 733.19 369.86 C 734.72 372.98 735.85 375.98 736.77 379.33 C 732.67 373.27 729.10 367.13 724.60 361.39 C 719.67 355.01 714.01 349.53 708.14 344.05 C 705.20 337.95 700.69 333.05 695.20 329.15 C 691.34 326.62 686.26 325.40 681.87 323.95 C 670.71 320.29 659.38 317.23 648.16 313.76 C 644.08 312.44 639.89 311.88 635.64 311.47 C 627.37 309.03 618.69 306.35 610.00 306.34 C 603.99 306.26 597.96 306.21 591.96 306.57 C 570.19 308.86 547.84 317.04 526.02 317.73 C 515.29 318.81 504.21 318.76 493.49 317.67 C 488.98 317.49 484.49 317.44 480.01 316.87 C 469.23 316.35 457.85 317.17 447.01 315.81 C 441.24 315.48 435.13 316.36 429.56 317.86 C 421.14 320.27 414.74 325.53 408.77 331.73 C 401.07 340.26 392.90 348.83 383.86 355.92 C 375.56 362.73 366.76 367.85 360.17 376.01 C 356.13 381.10 354.41 386.66 351.97 392.55 C 351.62 384.02 355.72 377.28 360.82 370.84 C 364.95 365.63 369.87 361.94 372.84 355.97 C 374.81 351.91 376.46 347.99 379.80 344.78 C 385.46 339.20 393.23 335.31 400.32 331.81 C 400.41 331.14 400.49 330.47 400.57 329.79 C 404.22 328.76 407.66 327.93 410.81 325.70 C 417.43 321.40 424.56 315.93 432.45 314.60 C 443.62 312.46 455.09 311.58 466.19 309.14 C 472.32 307.79 474.98 301.33 480.96 301.03 C 486.76 300.48 492.58 300.32 498.36 299.62 C 498.80 298.55 499.24 297.49 499.68 296.42 C 505.53 295.91 511.36 295.37 517.14 294.33 C 523.92 279.49 531.69 262.87 544.13 251.93 Z" id="p19" />
<path d="M 784.65 290.44 C 786.09 292.68 788.49 295.45 787.41 298.28 C 785.74 303.16 782.38 307.48 780.01 312.06 C 782.34 311.44 784.67 310.82 787.01 310.20 C 786.01 316.87 783.87 323.10 778.94 327.93 C 771.57 335.16 764.21 341.50 759.35 350.84 C 757.85 351.34 756.34 351.84 754.83 352.33 C 757.27 360.26 757.97 367.84 762.07 375.12 C 762.73 375.01 763.39 374.91 764.04 374.80 C 765.39 375.58 766.73 376.35 768.09 377.10 C 766.95 373.31 765.35 369.79 763.49 366.30 C 761.69 362.70 760.44 359.16 762.21 355.25 C 765.25 348.47 771.02 342.42 776.05 337.03 C 778.96 333.86 781.01 330.24 783.13 326.53 C 785.84 327.20 789.63 329.89 791.80 326.89 C 796.29 321.55 799.71 315.45 800.90 308.51 C 804.71 309.96 806.75 312.94 809.80 315.42 C 809.19 324.78 804.78 332.74 805.71 342.33 C 802.31 362.27 796.19 381.95 790.86 401.47 C 789.88 392.39 793.95 385.92 795.77 377.04 C 789.61 377.09 783.46 376.71 777.31 376.81 C 775.60 384.53 772.39 391.63 771.86 399.45 C 768.05 395.11 763.07 394.76 757.61 394.81 C 757.60 396.03 757.60 397.25 757.59 398.48 C 755.73 398.18 753.25 398.26 751.67 397.19 C 749.84 395.10 748.61 392.46 747.12 390.12 C 746.34 385.89 744.73 381.65 744.32 377.40 C 744.14 374.42 744.87 371.29 745.33 368.35 C 747.62 368.12 749.90 367.88 752.18 367.64 C 751.99 363.95 751.61 360.36 750.15 356.92 C 747.88 351.40 746.08 345.72 743.75 340.22 C 742.83 337.74 741.47 335.05 742.39 332.37 C 744.11 326.53 748.86 321.30 752.93 316.94 C 757.63 312.04 761.12 306.73 766.38 302.39 C 772.26 297.60 777.25 292.82 784.65 290.44 Z" id="p20" />
<path d="M 591.96 306.57 C 597.96 306.21 603.99 306.26 610.00 306.34 C 618.69 306.35 627.37 309.03 635.64 311.47 C 646.75 315.76 658.14 319.17 669.12 323.81 C 676.02 326.67 682.97 329.44 689.76 332.54 C 696.41 335.58 702.30 339.68 708.14 344.05 C 714.01 349.53 719.67 355.01 724.60 361.39 C 729.10 367.13 732.67 373.27 736.77 379.33 C 739.54 384.18 742.74 388.74 746.13 393.17 C 753.77 403.00 759.82 413.37 761.43 425.94 C 761.67 429.60 761.68 433.39 761.44 437.05 C 760.74 443.29 758.32 448.67 755.77 454.28 C 753.16 456.74 750.46 459.57 747.34 461.35 C 744.83 462.87 741.84 462.61 739.01 462.74 C 729.68 462.75 720.32 462.78 710.99 462.32 C 706.06 461.87 701.15 461.47 696.19 461.51 C 683.31 459.90 670.89 461.40 658.00 461.49 C 650.97 461.52 644.03 462.61 636.99 462.51 C 629.37 462.43 621.82 463.28 614.34 464.76 L 616.26 465.36 C 600.97 466.88 585.80 470.39 570.56 472.49 C 560.41 473.96 550.34 474.81 540.35 477.31 C 532.76 478.96 524.72 481.82 517.00 481.74 C 510.86 481.76 504.31 482.14 498.43 480.39 C 488.80 477.76 479.63 474.09 469.78 472.15 C 461.32 470.47 452.63 469.41 444.00 469.36 C 425.00 468.98 406.00 469.08 387.00 469.50 C 380.70 469.46 374.56 470.72 368.24 470.44 C 363.16 470.12 358.09 470.02 353.00 469.83 C 348.38 469.63 344.27 468.13 339.96 466.61 C 341.48 457.90 345.70 450.48 348.14 442.06 C 349.96 436.13 350.33 430.12 351.00 423.96 C 351.31 420.68 351.12 417.61 350.55 414.38 C 349.96 417.55 349.67 420.76 349.26 423.96 C 349.85 418.13 349.52 412.30 350.31 406.48 C 350.89 401.83 351.65 397.24 351.97 392.55 C 354.41 386.66 356.13 381.10 360.17 376.01 C 366.76 367.85 375.56 362.73 383.86 355.92 C 392.90 348.83 401.07 340.26 408.77 331.73 C 414.74 325.53 421.14 320.27 429.56 317.86 C 435.13 316.36 441.24 315.48 447.01 315.81 C 457.85 317.17 469.23 316.35 480.01 316.87 C 484.49 317.44 488.98 317.49 493.49 317.67 C 504.21 318.76 515.29 318.81 526.02 317.73 C 547.84 317.04 570.19 308.86 591.96 306.57 Z" id="p21" />
<path d="M 635.64 311.47 C 639.89 311.88 644.08 312.44 648.16 313.76 C 659.38 317.23 670.71 320.29 681.87 323.95 C 686.26 325.40 691.34 326.62 695.20 329.15 C 700.69 333.05 705.20 337.95 708.14 344.05 C 702.30 339.68 696.41 335.58 689.76 332.54 C 682.97 329.44 676.02 326.67 669.12 323.81 C 658.14 319.17 646.75 315.76 635.64 311.47 Z" id="p22" />
<path d="M 345.60 337.03 C 349.04 336.97 352.52 337.60 355.94 337.97 C 354.49 342.47 353.79 347.32 351.23 351.21 C 349.95 353.37 348.38 355.39 348.01 357.94 C 347.44 362.39 347.26 367.45 349.29 371.58 C 350.56 374.74 352.63 377.91 352.02 381.45 C 351.27 386.39 349.55 391.06 349.22 396.13 C 348.89 399.68 349.56 403.04 350.31 406.48 C 349.52 412.30 349.85 418.13 349.26 423.96 C 348.15 430.82 346.68 437.69 345.01 444.44 C 342.86 452.81 338.52 459.67 333.94 466.87 C 331.60 469.57 329.30 472.31 326.85 474.92 C 323.16 478.40 320.11 482.02 317.72 486.53 C 323.01 483.81 327.88 480.43 333.03 477.47 C 336.07 475.93 339.13 474.49 342.33 473.31 C 350.77 471.38 359.61 471.17 368.24 470.44 C 374.56 470.72 380.70 469.46 387.00 469.50 C 406.00 469.08 425.00 468.98 444.00 469.36 C 452.63 469.41 461.32 470.47 469.78 472.15 C 479.63 474.09 488.80 477.76 498.43 480.39 C 504.31 482.14 510.86 481.76 517.00 481.74 C 524.72 481.82 532.76 478.96 540.35 477.31 C 550.34 474.81 560.41 473.96 570.56 472.49 C 585.80 470.39 600.97 466.88 616.26 465.36 C 617.22 465.63 618.18 465.90 619.14 466.17 C 611.09 468.77 603.11 469.94 594.84 471.66 C 581.02 474.48 567.14 476.98 553.36 479.92 C 546.93 481.25 540.73 483.40 534.33 484.77 C 526.76 484.83 519.55 487.00 512.03 487.36 C 508.01 487.57 503.97 487.61 499.96 487.32 C 491.37 486.84 484.05 482.37 475.42 481.75 C 471.13 481.26 467.14 480.00 462.91 479.17 C 457.05 477.94 451.16 477.40 445.23 476.72 C 439.50 475.93 433.79 475.33 428.00 475.38 C 416.45 475.49 405.28 474.83 393.88 477.19 C 403.92 478.65 414.07 479.30 424.22 479.19 C 434.11 479.46 443.99 480.54 453.83 481.54 C 460.04 482.13 465.92 483.64 472.19 483.68 C 471.40 484.50 470.60 485.32 469.81 486.14 C 466.39 485.76 462.93 485.09 459.48 485.02 C 457.84 484.95 456.20 486.29 454.83 487.07 C 462.53 489.66 471.43 492.11 478.20 496.77 C 484.27 501.34 488.26 508.58 488.40 516.25 C 487.65 514.87 486.90 513.48 486.21 512.07 C 484.67 508.55 483.34 505.19 480.68 502.33 C 475.72 496.75 469.20 494.02 462.22 491.88 C 449.83 488.20 436.31 486.88 423.53 485.60 C 418.33 485.33 413.24 484.42 408.01 484.36 C 399.01 483.05 390.19 483.47 381.00 483.32 C 373.69 483.47 366.21 483.11 358.97 484.16 C 350.43 485.01 340.85 486.23 333.17 490.26 C 327.77 493.01 323.64 497.89 322.57 503.93 C 322.16 508.24 322.25 512.73 322.67 517.05 C 325.18 532.34 330.53 547.24 338.49 560.55 C 342.16 566.55 347.11 572.38 353.58 575.42 C 360.31 578.74 368.52 579.99 375.86 581.27 C 384.69 582.60 393.57 584.09 402.48 584.67 C 399.13 585.70 395.93 586.43 392.40 585.90 C 380.74 584.40 369.04 583.36 357.38 581.86 C 364.22 586.37 371.56 587.06 379.19 589.43 C 378.05 589.78 376.90 590.12 375.75 590.44 C 371.92 589.75 368.11 588.77 364.35 587.75 C 361.23 586.60 358.13 585.37 355.13 583.96 C 347.97 578.82 342.74 572.11 337.02 565.54 C 336.44 566.93 335.87 568.33 335.29 569.72 C 334.09 568.22 332.85 566.74 331.68 565.20 C 329.91 561.39 328.04 557.64 326.09 553.92 C 320.93 542.40 316.15 530.72 311.03 519.18 C 310.41 515.89 309.89 512.71 308.22 509.75 C 306.49 506.31 303.54 502.54 303.46 498.58 C 303.35 493.47 304.42 488.29 306.13 483.49 C 307.05 481.37 308.15 479.34 309.41 477.41 C 311.53 474.50 314.01 472.07 316.38 469.39 C 322.29 462.55 327.76 455.35 332.84 447.88 C 336.92 442.82 339.73 437.01 341.86 430.90 C 344.16 425.39 344.06 419.77 343.74 413.92 C 342.67 416.36 341.63 418.80 340.76 421.32 C 340.07 412.60 339.84 403.21 333.60 396.40 C 329.13 391.48 322.62 392.24 319.69 386.30 C 316.51 379.83 312.59 373.01 313.93 365.56 C 315.21 367.38 316.45 369.23 317.67 371.09 C 318.11 371.17 318.54 371.25 318.98 371.34 C 318.64 365.82 319.82 360.51 319.93 355.01 C 320.00 351.42 320.28 347.88 320.91 344.34 C 326.61 345.64 329.85 349.51 333.97 353.23 C 336.99 349.48 338.59 345.09 340.92 340.95 C 341.97 339.34 343.39 336.93 345.60 337.03 Z" id="p23" />
<path d="M 777.31 376.81 C 783.46 376.71 789.61 377.09 795.77 377.04 C 793.95 385.92 789.88 392.39 790.86 401.47 C 790.44 403.52 789.93 405.55 789.46 407.58 C 784.46 418.66 780.20 430.11 774.72 441.02 C 769.15 451.92 763.12 463.64 760.65 475.68 C 759.45 481.05 758.78 486.90 756.86 492.04 C 754.98 497.04 751.94 500.86 749.51 505.57 C 747.00 510.32 745.47 515.70 744.00 520.86 C 742.23 527.25 740.38 533.59 739.14 540.11 C 736.05 549.98 732.52 560.79 725.90 568.91 C 719.86 576.32 711.27 580.49 702.35 583.41 C 689.25 587.56 675.14 589.61 661.54 591.33 C 644.87 593.49 627.77 592.87 610.99 592.49 C 598.56 591.31 584.59 589.62 573.52 583.49 C 561.77 577.00 553.64 565.64 548.57 553.44 C 544.27 543.62 541.85 532.49 536.75 523.18 C 533.93 518.01 529.21 513.15 523.10 512.37 C 519.13 512.05 514.45 511.80 510.93 513.95 C 505.97 516.59 503.48 521.56 501.85 526.70 C 498.91 536.47 498.43 546.86 495.83 556.82 C 493.36 566.65 489.33 575.77 481.52 582.52 C 471.77 590.97 457.68 594.68 445.00 594.66 C 430.67 594.93 416.31 595.02 401.99 594.44 C 393.17 593.63 384.42 592.26 375.75 590.44 C 376.90 590.12 378.05 589.78 379.19 589.43 C 371.56 587.06 364.22 586.37 357.38 581.86 C 369.04 583.36 380.74 584.40 392.40 585.90 C 395.93 586.43 399.13 585.70 402.48 584.67 C 411.65 585.58 420.80 585.46 430.01 585.32 C 438.52 584.56 446.78 584.62 455.04 582.04 C 463.72 579.50 471.99 574.77 477.00 567.02 C 483.46 557.48 485.22 545.23 486.41 534.02 C 486.71 526.73 486.98 519.33 486.21 512.07 C 486.90 513.48 487.65 514.87 488.40 516.25 C 488.26 508.58 484.27 501.34 478.20 496.77 C 471.43 492.11 462.53 489.66 454.83 487.07 C 456.20 486.29 457.84 484.95 459.48 485.02 C 462.93 485.09 466.39 485.76 469.81 486.14 C 479.17 486.90 486.45 491.41 495.96 490.58 C 506.15 489.75 516.16 490.63 526.25 489.12 C 533.67 487.94 540.90 487.24 547.92 484.33 C 554.20 482.77 560.65 481.90 567.08 480.70 C 583.01 477.78 598.97 475.03 614.88 472.00 C 614.28 473.46 613.69 474.92 613.10 476.38 C 610.82 476.78 608.55 477.24 606.27 477.61 C 599.30 477.41 592.73 478.85 586.14 480.96 C 586.91 481.54 587.67 482.12 588.44 482.70 C 585.60 483.55 582.83 484.60 580.08 485.69 C 570.70 488.16 559.80 490.46 552.92 497.93 C 549.69 501.35 549.15 505.46 549.35 509.99 C 549.25 515.83 550.80 521.06 552.22 526.66 C 555.57 538.95 558.86 551.06 566.51 561.50 C 572.23 569.56 580.76 575.00 590.16 577.78 C 597.89 580.06 605.97 581.29 614.00 581.74 C 620.33 582.63 626.63 582.43 633.00 582.45 C 638.04 582.41 643.01 582.55 648.02 581.84 C 661.23 581.16 674.48 579.65 687.47 577.08 C 696.80 575.08 707.15 571.98 714.11 565.11 C 720.03 559.59 723.21 552.23 725.93 544.75 C 731.02 529.77 734.35 514.91 732.36 498.98 C 730.89 492.69 727.13 486.82 721.48 483.52 C 713.38 478.62 703.27 477.58 694.03 476.66 C 680.35 476.06 666.69 476.21 653.10 478.12 C 646.14 478.86 639.24 480.14 632.27 480.84 C 629.08 480.83 625.89 480.68 622.70 480.54 C 626.43 479.30 630.19 478.07 634.01 477.17 C 643.91 475.65 653.84 474.29 663.71 472.61 C 666.72 472.59 669.73 472.68 672.73 472.68 C 683.02 473.36 693.40 472.24 703.69 471.88 C 702.51 470.54 702.38 468.93 700.88 468.06 C 698.16 466.82 694.98 466.43 692.06 465.87 C 692.85 464.70 693.64 463.53 694.42 462.36 C 699.95 463.92 706.20 463.23 712.04 463.78 C 718.34 464.38 724.70 464.73 730.94 465.71 C 735.85 466.47 739.31 470.85 744.43 469.15 C 750.78 466.56 754.31 460.79 755.77 454.28 C 758.32 448.67 760.74 443.29 761.44 437.05 C 761.68 433.39 761.67 429.60 761.43 425.94 C 759.82 413.37 753.77 403.00 746.13 393.17 C 746.47 392.16 746.80 391.14 747.12 390.12 C 748.61 392.46 749.84 395.10 751.67 397.19 C 753.25 398.26 755.73 398.18 757.59 398.48 C 757.60 397.25 757.60 396.03 757.61 394.81 C 763.07 394.76 768.05 395.11 771.86 399.45 C 772.39 391.63 775.60 384.53 777.31 376.81 Z" id="p24" />
<path d="M 321.70 395.04 C 326.26 397.74 332.04 400.37 335.40 404.56 C 339.30 410.31 339.68 417.89 336.56 424.10 C 336.53 420.25 336.91 416.12 335.09 412.60 C 333.32 409.21 329.97 406.36 327.45 403.48 C 325.13 400.93 323.34 398.04 321.70 395.04 Z" id="p25" />
<path d="M 804.21 403.48 C 805.00 406.31 805.55 409.18 805.96 412.09 C 805.05 413.15 804.18 414.23 803.42 415.41 C 802.50 414.58 801.57 413.78 800.63 412.98 C 798.85 414.74 797.26 416.66 795.90 418.76 C 794.08 421.76 792.55 424.85 790.83 427.90 C 789.60 429.98 788.39 432.08 787.29 434.22 C 788.35 429.90 789.65 425.73 791.84 421.84 C 795.55 415.17 798.59 408.80 804.21 403.48 Z" id="p26" />
<path d="M 328.07 405.62 C 332.06 408.97 335.28 412.87 336.19 418.15 C 337.12 423.10 335.14 427.76 333.07 432.14 C 332.05 434.08 330.79 435.77 329.52 437.54 C 330.60 432.96 332.63 428.53 333.32 423.88 C 333.69 417.87 329.93 411.27 328.07 405.62 Z" id="p27" />
<path d="M 789.46 407.58 C 789.31 411.28 788.69 414.75 787.19 418.15 C 784.10 425.36 780.73 432.45 777.46 439.58 C 772.60 450.14 766.41 460.24 763.33 471.50 C 760.63 481.08 760.38 490.91 756.88 500.04 C 753.88 508.04 748.05 514.04 745.13 522.15 C 742.99 528.11 741.73 534.29 739.14 540.11 C 740.38 533.59 742.23 527.25 744.00 520.86 C 745.47 515.70 747.00 510.32 749.51 505.57 C 751.94 500.86 754.98 497.04 756.86 492.04 C 758.78 486.90 759.45 481.05 760.65 475.68 C 763.12 463.64 769.15 451.92 774.72 441.02 C 780.20 430.11 784.46 418.66 789.46 407.58 Z" id="p28" />
<path d="M 805.96 412.09 C 808.89 415.08 811.78 418.13 814.52 421.31 C 814.16 426.28 818.49 431.08 820.25 435.67 C 817.01 433.71 813.22 432.86 810.00 430.92 C 807.33 428.48 806.01 424.35 804.35 421.16 C 801.41 428.11 797.60 434.53 793.76 440.99 C 795.77 434.27 798.67 428.77 797.24 421.56 C 794.91 423.48 792.72 425.55 790.83 427.90 C 792.55 424.85 794.08 421.76 795.90 418.76 C 796.86 418.70 797.82 418.63 798.78 418.57 C 799.58 419.25 800.37 419.93 801.16 420.62 C 801.89 418.87 802.61 417.11 803.42 415.41 C 804.18 414.23 805.05 413.15 805.96 412.09 Z" id="p29" />
<path d="M 800.63 412.98 C 801.57 413.78 802.50 414.58 803.42 415.41 C 802.61 417.11 801.89 418.87 801.16 420.62 C 800.37 419.93 799.58 419.25 798.78 418.57 C 797.82 418.63 796.86 418.70 795.90 418.76 C 797.26 416.66 798.85 414.74 800.63 412.98 Z" id="p30" />
<path d="M 343.74 413.92 C 344.06 419.77 344.16 425.39 341.86 430.90 C 342.07 428.83 342.16 426.75 342.18 424.67 C 341.49 425.45 340.82 426.23 340.17 427.03 C 340.43 425.14 340.59 423.22 340.76 421.32 C 341.63 418.80 342.67 416.36 343.74 413.92 Z" id="p31" />
<path d="M 350.55 414.38 C 351.12 417.61 351.31 420.68 351.00 423.96 C 350.33 430.12 349.96 436.13 348.14 442.06 C 345.70 450.48 341.48 457.90 339.96 466.61 C 344.27 468.13 348.38 469.63 353.00 469.83 C 358.09 470.02 363.16 470.12 368.24 470.44 C 359.61 471.17 350.77 471.38 342.33 473.31 C 338.95 473.38 335.57 473.33 332.19 473.37 C 332.77 471.20 333.32 469.02 333.94 466.87 C 338.52 459.67 342.86 452.81 345.01 444.44 C 346.68 437.69 348.15 430.82 349.26 423.96 C 349.67 420.76 349.96 417.55 350.55 414.38 Z" id="p32" />
<path d="M 804.35 421.16 C 806.01 424.35 807.33 428.48 810.00 430.92 C 813.22 432.86 817.01 433.71 820.25 435.67 C 821.44 438.26 822.38 440.89 823.30 443.58 C 822.65 443.64 822.01 443.71 821.36 443.77 C 820.80 445.27 820.25 446.77 819.69 448.28 C 813.66 448.05 809.41 444.77 805.33 440.59 C 804.68 443.17 803.97 445.73 803.20 448.28 C 803.03 442.47 803.59 436.73 803.87 430.93 C 799.80 434.65 796.86 439.09 794.23 443.89 C 794.08 442.92 793.92 441.96 793.76 440.99 C 797.60 434.53 801.41 428.11 804.35 421.16 Z" id="p33" />
<path d="M 797.24 421.56 C 798.67 428.77 795.77 434.27 793.76 440.99 C 792.71 444.07 791.29 446.98 790.02 449.97 C 791.48 441.46 795.24 435.53 794.36 427.35 C 785.81 435.49 785.88 445.39 779.96 455.04 C 781.77 447.86 784.74 441.15 787.29 434.22 C 788.39 432.08 789.60 429.98 790.83 427.90 C 792.72 425.55 794.91 423.48 797.24 421.56 Z" id="p34" />
<path d="M 814.52 421.31 C 817.99 425.16 820.80 429.34 822.97 434.05 C 827.40 443.69 830.14 454.38 830.29 465.01 C 829.66 476.02 827.28 486.72 827.61 498.00 C 827.54 507.52 828.71 517.70 826.87 527.05 C 826.66 520.30 826.93 513.57 826.53 506.83 C 826.46 514.86 825.73 522.53 823.26 530.20 C 824.05 522.15 824.94 514.15 824.82 506.04 C 824.65 496.40 825.53 486.87 826.42 477.29 C 828.37 465.31 827.46 454.95 823.30 443.58 C 822.38 440.89 821.44 438.26 820.25 435.67 C 818.49 431.08 814.16 426.28 814.52 421.31 Z" id="p35" />
<path d="M 342.18 424.67 C 342.16 426.75 342.07 428.83 341.86 430.90 C 339.73 437.01 336.92 442.82 332.84 447.88 C 335.00 443.38 337.09 438.83 338.96 434.20 C 337.99 434.83 337.04 435.47 336.10 436.15 C 337.47 433.11 338.78 430.06 340.17 427.03 C 340.82 426.23 341.49 425.45 342.18 424.67 Z" id="p36" />
<path d="M 794.36 427.35 C 795.24 435.53 791.48 441.46 790.02 449.97 C 789.37 452.30 788.75 454.65 788.13 456.99 C 786.80 460.43 785.36 463.50 785.27 467.28 C 785.18 472.73 786.74 478.32 787.47 483.72 C 788.95 494.30 791.48 504.65 792.67 515.28 C 793.70 523.24 793.89 531.28 794.85 539.26 C 795.08 546.13 794.51 552.94 793.89 559.79 C 793.04 564.58 792.07 569.35 791.17 574.13 C 790.00 580.21 787.87 585.96 786.89 592.06 C 786.16 596.44 785.96 600.81 785.85 605.24 C 787.61 603.89 789.34 602.58 791.00 601.10 C 788.76 605.34 786.28 609.24 782.76 612.56 C 780.63 600.29 785.94 591.45 787.99 579.82 C 790.27 571.59 792.55 563.58 793.10 555.00 C 793.99 539.37 792.87 523.89 790.67 508.41 C 789.60 501.51 788.44 494.47 786.01 487.92 C 784.46 483.60 782.70 479.73 782.74 475.02 C 783.08 462.58 789.30 450.88 789.79 438.86 C 785.36 445.15 783.27 452.20 780.32 459.44 C 776.57 468.87 774.42 478.82 774.71 489.00 C 775.08 500.81 776.01 513.04 775.41 525.03 C 775.23 529.51 774.26 533.83 773.18 538.17 C 774.24 524.84 773.91 511.35 773.53 497.99 C 773.51 493.96 772.68 490.01 772.64 486.00 C 772.99 475.17 776.03 465.05 779.96 455.04 C 785.88 445.39 785.81 435.49 794.36 427.35 Z" id="p37" />
<path d="M 803.87 430.93 C 803.59 436.73 803.03 442.47 803.20 448.28 C 803.97 445.73 804.68 443.17 805.33 440.59 C 809.41 444.77 813.66 448.05 819.69 448.28 C 820.25 446.77 820.80 445.27 821.36 443.77 C 822.01 443.71 822.65 443.64 823.30 443.58 C 827.46 454.95 828.37 465.31 826.42 477.29 C 825.99 469.88 826.42 463.01 824.43 455.80 C 824.32 458.50 824.25 461.20 824.20 463.90 C 823.44 464.32 822.68 464.74 821.92 465.16 C 821.65 464.02 821.39 462.88 821.12 461.74 C 819.94 463.44 818.75 465.14 817.59 466.86 C 816.73 463.90 815.84 460.94 814.91 458.00 C 813.40 458.02 811.90 458.04 810.39 458.05 C 810.76 470.70 811.28 483.34 811.16 496.00 C 811.05 504.96 811.73 514.32 810.34 523.17 C 808.70 533.88 803.36 543.38 800.77 553.66 C 799.50 558.83 799.93 563.73 799.84 569.03 C 799.77 572.76 799.98 576.41 800.61 580.10 C 802.23 578.85 803.87 577.62 805.42 576.28 C 804.39 578.31 803.40 580.35 802.34 582.36 C 800.63 583.21 798.92 584.06 797.22 584.92 C 797.84 578.61 797.84 572.33 797.75 565.99 C 798.11 555.66 800.45 545.28 804.97 535.96 C 807.31 531.10 808.55 526.23 809.17 520.89 C 810.02 515.42 810.21 509.77 810.03 504.24 C 810.01 496.43 810.69 489.05 807.91 481.55 C 805.88 486.91 804.53 492.40 801.89 497.53 C 800.36 497.24 798.82 496.95 797.28 496.66 C 796.48 499.52 795.67 502.37 794.83 505.22 C 791.61 497.33 790.61 489.13 789.29 480.80 C 789.09 481.96 788.91 483.12 788.74 484.28 C 787.72 475.20 788.84 466.11 788.13 456.99 C 788.75 454.65 789.37 452.30 790.02 449.97 C 791.29 446.98 792.71 444.07 793.76 440.99 C 793.92 441.96 794.08 442.92 794.23 443.89 C 796.86 439.09 799.80 434.65 803.87 430.93 Z" id="p38" />
<path d="M 338.96 434.20 C 337.09 438.83 335.00 443.38 332.84 447.88 C 327.76 455.35 322.29 462.55 316.38 469.39 C 314.01 472.07 311.53 474.50 309.41 477.41 C 308.29 477.41 307.16 477.42 306.04 477.43 C 306.69 475.63 307.31 473.81 307.99 472.02 C 317.31 460.19 328.06 448.83 336.10 436.15 C 337.04 435.47 337.99 434.83 338.96 434.20 Z" id="p39" />
<path d="M 789.79 438.86 C 789.30 450.88 783.08 462.58 782.74 475.02 C 782.70 479.73 784.46 483.60 786.01 487.92 C 788.44 494.47 789.60 501.51 790.67 508.41 C 792.87 523.89 793.99 539.37 793.10 555.00 C 792.55 563.58 790.27 571.59 787.99 579.82 C 784.36 587.91 780.98 596.08 778.46 604.60 C 776.68 611.60 775.67 618.47 778.38 625.38 C 780.47 622.14 782.52 618.88 784.71 615.71 C 783.22 620.89 781.68 625.94 781.42 631.37 C 775.76 649.70 772.22 668.46 768.04 687.15 C 766.00 696.52 763.50 705.91 759.69 714.73 C 752.83 730.53 744.35 745.68 735.37 760.37 C 727.39 773.48 716.40 783.12 707.30 795.31 C 701.51 803.00 696.25 811.02 691.28 819.27 C 687.17 825.96 683.70 832.56 678.70 838.68 C 673.55 845.42 665.98 850.30 659.05 855.05 C 648.92 861.88 639.68 869.04 629.14 875.15 C 621.38 879.63 613.31 883.53 604.84 886.49 C 602.17 885.88 599.91 884.90 597.20 885.85 C 594.88 886.36 592.66 887.76 590.33 886.70 C 585.64 884.74 580.89 882.84 576.26 880.75 C 573.55 879.88 574.75 875.73 576.22 874.23 C 581.45 868.79 590.08 866.66 596.39 862.36 C 589.83 861.84 583.28 861.86 576.70 861.80 C 581.89 858.28 587.95 856.80 593.05 853.16 C 599.17 848.90 605.44 845.00 611.13 840.16 C 618.03 834.35 625.25 828.91 632.15 823.10 C 634.14 821.46 634.83 819.97 635.34 817.49 C 642.16 810.59 648.47 803.13 654.73 795.72 C 662.32 786.94 670.36 778.60 678.53 770.36 C 680.76 768.96 682.86 767.59 684.36 765.35 C 689.87 757.37 693.58 748.20 699.05 740.11 C 703.31 733.81 707.93 727.68 712.93 721.94 C 722.05 711.97 728.45 699.33 730.92 686.04 C 732.33 679.43 733.22 672.64 734.99 666.13 C 736.93 658.95 740.20 652.77 742.58 645.74 C 747.23 632.02 750.23 617.94 755.16 604.30 C 759.76 591.54 763.91 578.66 767.52 565.58 C 769.71 557.20 772.77 549.60 772.62 540.78 C 772.80 539.91 772.99 539.04 773.18 538.17 C 774.26 533.83 775.23 529.51 775.41 525.03 C 776.01 513.04 775.08 500.81 774.71 489.00 C 774.42 478.82 776.57 468.87 780.32 459.44 C 783.27 452.20 785.36 445.15 789.79 438.86 Z" id="p40" />
<path d="M 755.77 454.28 C 754.31 460.79 750.78 466.56 744.43 469.15 C 739.31 470.85 735.85 466.47 730.94 465.71 C 724.70 464.73 718.34 464.38 712.04 463.78 C 706.20 463.23 699.95 463.92 694.42 462.36 L 692.68 461.90 C 693.85 461.77 695.02 461.64 696.19 461.51 C 701.15 461.47 706.06 461.87 710.99 462.32 C 720.32 462.78 729.68 462.75 739.01 462.74 C 741.84 462.61 744.83 462.87 747.34 461.35 C 750.46 459.57 753.16 456.74 755.77 454.28 Z" id="p41" />
<path d="M 824.43 455.80 C 826.42 463.01 825.99 469.88 826.42 477.29 C 825.53 486.87 824.65 496.40 824.82 506.04 C 824.94 514.15 824.05 522.15 823.26 530.20 C 820.94 539.94 817.22 549.13 813.45 558.39 C 810.95 564.41 808.45 570.50 805.42 576.28 C 803.87 577.62 802.23 578.85 800.61 580.10 C 799.98 576.41 799.77 572.76 799.84 569.03 C 799.93 563.73 799.50 558.83 800.77 553.66 C 803.36 543.38 808.70 533.88 810.34 523.17 C 811.73 514.32 811.05 504.96 811.16 496.00 C 811.28 483.34 810.76 470.70 810.39 458.05 C 811.90 458.04 813.40 458.02 814.91 458.00 C 815.84 460.94 816.73 463.90 817.59 466.86 C 818.75 465.14 819.94 463.44 821.12 461.74 C 821.39 462.88 821.65 464.02 821.92 465.16 C 822.68 464.74 823.44 464.32 824.20 463.90 C 824.25 461.20 824.32 458.50 824.43 455.80 Z" id="p42" />
<path d="M 788.13 456.99 C 788.84 466.11 787.72 475.20 788.74 484.28 C 789.22 489.14 790.38 493.96 791.20 498.77 C 793.02 508.70 794.14 518.68 795.16 528.72 C 795.17 532.26 794.90 535.73 794.85 539.26 C 793.89 531.28 793.70 523.24 792.67 515.28 C 791.48 504.65 788.95 494.30 787.47 483.72 C 786.74 478.32 785.18 472.73 785.27 467.28 C 785.36 463.50 786.80 460.43 788.13 456.99 Z" id="p43" />
<path d="M 658.00 461.49 C 670.89 461.40 683.31 459.90 696.19 461.51 C 695.02 461.64 693.85 461.77 692.68 461.90 C 674.22 461.17 655.92 463.21 637.92 467.24 C 630.27 468.97 622.57 470.45 614.88 472.00 C 598.97 475.03 583.01 477.78 567.08 480.70 C 560.65 481.90 554.20 482.77 547.92 484.33 C 541.64 484.73 535.32 485.44 529.15 486.72 C 530.88 486.07 532.59 485.39 534.33 484.77 C 540.73 483.40 546.93 481.25 553.36 479.92 C 567.14 476.98 581.02 474.48 594.84 471.66 C 603.11 469.94 611.09 468.77 619.14 466.17 C 618.18 465.90 617.22 465.63 616.26 465.36 L 614.34 464.76 C 621.82 463.28 629.37 462.43 636.99 462.51 C 644.03 462.61 650.97 461.52 658.00 461.49 Z" id="p44" />
<path d="M 692.68 461.90 L 694.42 462.36 C 693.64 463.53 692.85 464.70 692.06 465.87 C 694.98 466.43 698.16 466.82 700.88 468.06 C 702.38 468.93 702.51 470.54 703.69 471.88 C 693.40 472.24 683.02 473.36 672.73 472.68 C 679.10 471.47 685.76 471.39 691.39 468.58 C 679.90 465.82 667.26 466.52 655.74 468.84 C 641.41 470.76 627.31 473.76 613.10 476.38 C 613.69 474.92 614.28 473.46 614.88 472.00 C 622.57 470.45 630.27 468.97 637.92 467.24 C 655.92 463.21 674.22 461.17 692.68 461.90 Z" id="p45" />
<path d="M 333.94 466.87 C 333.32 469.02 332.77 471.20 332.19 473.37 C 335.57 473.33 338.95 473.38 342.33 473.31 C 339.13 474.49 336.07 475.93 333.03 477.47 C 330.86 476.89 328.83 475.97 326.85 474.92 C 329.30 472.31 331.60 469.57 333.94 466.87 Z" id="p46" />
<path d="M 691.39 468.58 C 685.76 471.39 679.10 471.47 672.73 472.68 C 669.73 472.68 666.72 472.59 663.71 472.61 C 667.65 471.73 671.49 470.49 675.21 468.93 C 668.77 468.27 662.20 468.50 655.74 468.84 C 667.26 466.52 679.90 465.82 691.39 468.58 Z" id="p47" />
<path d="M 655.74 468.84 C 662.20 468.50 668.77 468.27 675.21 468.93 C 671.49 470.49 667.65 471.73 663.71 472.61 C 653.84 474.29 643.91 475.65 634.01 477.17 C 622.31 478.11 610.80 479.86 599.01 479.53 C 601.44 478.93 603.86 478.27 606.27 477.61 C 608.55 477.24 610.82 476.78 613.10 476.38 C 627.31 473.76 641.41 470.76 655.74 468.84 Z" id="p48" />
<path d="M 307.99 472.02 C 307.31 473.81 306.69 475.63 306.04 477.43 C 307.16 477.42 308.29 477.41 309.41 477.41 C 308.15 479.34 307.05 481.37 306.13 483.49 C 305.10 483.57 304.07 483.60 303.04 483.58 C 302.35 482.66 301.65 481.74 300.95 480.83 C 303.11 477.74 305.49 474.84 307.99 472.02 Z" id="p49" />
<path d="M 326.85 474.92 C 328.83 475.97 330.86 476.89 333.03 477.47 C 327.88 480.43 323.01 483.81 317.72 486.53 C 320.11 482.02 323.16 478.40 326.85 474.92 Z" id="p50" />
<path d="M 428.00 475.38 C 433.79 475.33 439.50 475.93 445.23 476.72 C 436.22 476.82 427.66 476.03 418.86 477.25 C 420.64 477.91 422.42 478.58 424.22 479.19 C 414.07 479.30 403.92 478.65 393.88 477.19 C 405.28 474.83 416.45 475.49 428.00 475.38 Z" id="p51" />
<path d="M 418.86 477.25 C 427.66 476.03 436.22 476.82 445.23 476.72 C 451.16 477.40 457.05 477.94 462.91 479.17 C 467.14 480.00 471.13 481.26 475.42 481.75 C 475.37 482.43 475.32 483.10 475.28 483.78 C 474.25 483.74 473.22 483.71 472.19 483.68 C 465.92 483.64 460.04 482.13 453.83 481.54 C 443.99 480.54 434.11 479.46 424.22 479.19 C 422.42 478.58 420.64 477.91 418.86 477.25 Z" id="p52" />
<path d="M 606.27 477.61 C 603.86 478.27 601.44 478.93 599.01 479.53 C 610.80 479.86 622.31 478.11 634.01 477.17 C 630.19 478.07 626.43 479.30 622.70 480.54 C 625.89 480.68 629.08 480.83 632.27 480.84 C 626.74 482.06 621.14 482.62 615.53 483.28 C 611.01 483.68 606.52 483.39 602.00 483.96 C 597.11 484.64 592.23 484.25 587.36 485.04 C 584.94 485.40 582.51 485.53 580.08 485.69 C 582.83 484.60 585.60 483.55 588.44 482.70 C 587.67 482.12 586.91 481.54 586.14 480.96 C 592.73 478.85 599.30 477.41 606.27 477.61 Z" id="p53" />
<path d="M 694.03 476.66 C 703.27 477.58 713.38 478.62 721.48 483.52 C 727.13 486.82 730.89 492.69 732.36 498.98 C 734.35 514.91 731.02 529.77 725.93 544.75 C 723.21 552.23 720.03 559.59 714.11 565.11 C 707.15 571.98 696.80 575.08 687.47 577.08 C 674.48 579.65 661.23 581.16 648.02 581.84 C 643.01 582.55 638.04 582.41 633.00 582.45 C 626.63 582.43 620.33 582.63 614.00 581.74 C 605.97 581.29 597.89 580.06 590.16 577.78 C 580.76 575.00 572.23 569.56 566.51 561.50 C 558.86 551.06 555.57 538.95 552.22 526.66 C 550.80 521.06 549.25 515.83 549.35 509.99 C 549.15 505.46 549.69 501.35 552.92 497.93 C 559.80 490.46 570.70 488.16 580.08 485.69 C 582.51 485.53 584.94 485.40 587.36 485.04 C 592.23 484.25 597.11 484.64 602.00 483.96 C 606.52 483.39 611.01 483.68 615.53 483.28 C 621.14 482.62 626.74 482.06 632.27 480.84 C 639.24 480.14 646.14 478.86 653.10 478.12 C 666.69 476.21 680.35 476.06 694.03 476.66 Z" id="p54" />
<path d="M 300.95 480.83 C 301.65 481.74 302.35 482.66 303.04 483.58 C 304.07 483.60 305.10 483.57 306.13 483.49 C 304.42 488.29 303.35 493.47 303.46 498.58 C 303.54 502.54 306.49 506.31 308.22 509.75 C 309.89 512.71 310.41 515.89 311.03 519.18 C 308.10 515.05 305.22 510.89 302.15 506.86 C 298.96 502.60 295.89 498.27 294.69 492.98 C 294.04 489.22 294.25 485.37 295.62 481.80 C 295.61 485.99 296.30 490.08 297.34 494.13 C 298.12 489.39 298.38 485.04 300.95 480.83 Z" id="p55" />
<path d="M 789.29 480.80 C 790.61 489.13 791.61 497.33 794.83 505.22 C 795.67 502.37 796.48 499.52 797.28 496.66 C 798.82 496.95 800.36 497.24 801.89 497.53 C 804.53 492.40 805.88 486.91 807.91 481.55 C 810.69 489.05 810.01 496.43 810.03 504.24 C 809.64 500.32 808.82 496.46 807.90 492.64 C 806.24 498.08 804.72 503.55 803.06 508.99 C 800.78 516.65 801.95 524.22 803.09 531.95 C 805.32 528.35 807.47 524.79 809.17 520.89 C 808.55 526.23 807.31 531.10 804.97 535.96 C 800.45 545.28 798.11 555.66 797.75 565.99 C 797.84 572.33 797.84 578.61 797.22 584.92 C 798.92 584.06 800.63 583.21 802.34 582.36 C 801.09 584.70 799.74 586.99 798.28 589.22 C 796.63 590.42 794.89 591.54 793.17 592.67 C 793.80 587.15 794.26 581.63 794.47 576.07 C 794.77 568.65 796.21 561.43 796.33 554.00 C 796.47 545.55 796.21 537.11 795.16 528.72 C 794.14 518.68 793.02 508.70 791.20 498.77 C 790.38 493.96 789.22 489.14 788.74 484.28 C 788.91 483.12 789.09 481.96 789.29 480.80 Z" id="p56" />
<path d="M 475.42 481.75 C 484.05 482.37 491.37 486.84 499.96 487.32 C 503.97 487.61 508.01 487.57 512.03 487.36 C 519.55 487.00 526.76 484.83 534.33 484.77 C 532.59 485.39 530.88 486.07 529.15 486.72 C 535.32 485.44 541.64 484.73 547.92 484.33 C 540.90 487.24 533.67 487.94 526.25 489.12 C 516.16 490.63 506.15 489.75 495.96 490.58 C 486.45 491.41 479.17 486.90 469.81 486.14 C 470.60 485.32 471.40 484.50 472.19 483.68 C 473.22 483.71 474.25 483.74 475.28 483.78 C 475.32 483.10 475.37 482.43 475.42 481.75 Z" id="p57" />
<path d="M 358.97 484.16 C 366.21 483.11 373.69 483.47 381.00 483.32 C 390.19 483.47 399.01 483.05 408.01 484.36 C 413.24 484.42 418.33 485.33 423.53 485.60 C 436.31 486.88 449.83 488.20 462.22 491.88 C 469.20 494.02 475.72 496.75 480.68 502.33 C 483.34 505.19 484.67 508.55 486.21 512.07 C 486.98 519.33 486.71 526.73 486.41 534.02 C 485.22 545.23 483.46 557.48 477.00 567.02 C 471.99 574.77 463.72 579.50 455.04 582.04 C 446.78 584.62 438.52 584.56 430.01 585.32 C 420.80 585.46 411.65 585.58 402.48 584.67 C 393.57 584.09 384.69 582.60 375.86 581.27 C 368.52 579.99 360.31 578.74 353.58 575.42 C 347.11 572.38 342.16 566.55 338.49 560.55 C 330.53 547.24 325.18 532.34 322.67 517.05 C 322.25 512.73 322.16 508.24 322.57 503.93 C 323.64 497.89 327.77 493.01 333.17 490.26 C 340.85 486.23 350.43 485.01 358.97 484.16 Z" id="p58" />
<path d="M 807.90 492.64 C 808.82 496.46 809.64 500.32 810.03 504.24 C 810.21 509.77 810.02 515.42 809.17 520.89 C 807.47 524.79 805.32 528.35 803.09 531.95 C 801.95 524.22 800.78 516.65 803.06 508.99 C 804.72 503.55 806.24 498.08 807.90 492.64 Z" id="p59" />
<path d="M 826.53 506.83 C 826.93 513.57 826.66 520.30 826.87 527.05 C 825.46 537.69 821.38 548.36 817.40 558.29 C 813.53 567.73 809.47 577.50 804.28 586.28 C 799.56 594.41 794.10 601.54 789.87 609.98 C 786.33 616.87 784.14 623.95 781.42 631.37 C 781.68 625.94 783.22 620.89 784.71 615.71 C 782.52 618.88 780.47 622.14 778.38 625.38 C 775.67 618.47 776.68 611.60 778.46 604.60 C 780.98 596.08 784.36 587.91 787.99 579.82 C 785.94 591.45 780.63 600.29 782.76 612.56 C 786.28 609.24 788.76 605.34 791.00 601.10 C 791.50 600.26 792.00 599.43 792.50 598.60 C 794.41 595.46 796.36 592.35 798.28 589.22 C 799.74 586.99 801.09 584.70 802.34 582.36 C 803.40 580.35 804.39 578.31 805.42 576.28 C 808.45 570.50 810.95 564.41 813.45 558.39 C 817.22 549.13 820.94 539.94 823.26 530.20 C 825.73 522.53 826.46 514.86 826.53 506.83 Z" id="p60" />
<path d="M 795.16 528.72 C 796.21 537.11 796.47 545.55 796.33 554.00 C 796.21 561.43 794.77 568.65 794.47 576.07 C 794.26 581.63 793.80 587.15 793.17 592.67 C 794.89 591.54 796.63 590.42 798.28 589.22 C 796.36 592.35 794.41 595.46 792.50 598.60 C 791.39 598.52 790.27 598.44 789.16 598.36 C 790.14 590.37 790.85 582.39 792.44 574.48 C 793.47 569.62 793.75 564.73 793.89 559.79 C 794.51 552.94 795.08 546.13 794.85 539.26 C 794.90 535.73 795.17 532.26 795.16 528.72 Z" id="p61" />
<path d="M 772.62 540.78 C 772.77 549.60 769.71 557.20 767.52 565.58 C 763.91 578.66 759.76 591.54 755.16 604.30 C 750.23 617.94 747.23 632.02 742.58 645.74 C 740.20 652.77 736.93 658.95 734.99 666.13 C 733.22 672.64 732.33 679.43 730.92 686.04 C 728.45 699.33 722.05 711.97 712.93 721.94 C 707.93 727.68 703.31 733.81 699.05 740.11 C 693.58 748.20 689.87 757.37 684.36 765.35 C 682.86 767.59 680.76 768.96 678.53 770.36 C 681.32 766.16 684.37 762.13 686.90 757.80 C 691.41 750.10 694.49 741.65 699.09 734.11 C 705.99 722.63 715.31 713.73 721.58 701.72 C 725.59 694.33 727.40 686.28 728.36 677.98 C 729.69 665.93 733.77 655.30 738.05 644.11 C 742.86 631.66 746.72 618.87 751.39 606.38 C 759.91 584.95 767.13 563.18 772.62 540.78 Z" id="p62" />
<path d="M 326.09 553.92 C 328.04 557.64 329.91 561.39 331.68 565.20 C 332.88 568.07 334.05 570.96 335.30 573.81 C 336.88 583.50 335.98 593.43 337.02 603.24 C 335.27 592.38 333.53 581.52 331.26 570.74 C 329.95 565.02 327.68 559.58 326.09 553.92 Z" id="p63" />
<path d="M 793.89 559.79 C 793.75 564.73 793.47 569.62 792.44 574.48 C 790.85 582.39 790.14 590.37 789.16 598.36 C 790.27 598.44 791.39 598.52 792.50 598.60 C 792.00 599.43 791.50 600.26 791.00 601.10 C 789.34 602.58 787.61 603.89 785.85 605.24 C 785.96 600.81 786.16 596.44 786.89 592.06 C 787.87 585.96 790.00 580.21 791.17 574.13 C 792.07 569.35 793.04 564.58 793.89 559.79 Z" id="p64" />
<path d="M 331.68 565.20 C 332.85 566.74 334.09 568.22 335.29 569.72 C 335.87 568.33 336.44 566.93 337.02 565.54 C 342.74 572.11 347.97 578.82 355.13 583.96 C 352.13 582.62 349.59 581.04 347.08 578.93 C 345.01 576.52 342.87 574.36 340.09 572.77 C 340.52 577.01 341.53 580.93 343.22 584.84 C 342.23 583.56 341.18 582.31 340.13 581.09 C 341.24 585.70 342.61 589.79 341.72 594.61 C 340.69 600.19 339.38 605.56 339.65 611.29 C 339.03 606.17 338.29 601.19 338.53 596.00 C 338.62 592.32 339.25 588.61 339.12 584.94 C 338.90 580.82 336.99 577.46 335.30 573.81 C 334.05 570.96 332.88 568.07 331.68 565.20 Z" id="p65" />
<path d="M 340.09 572.77 C 342.87 574.36 345.01 576.52 347.08 578.93 C 345.81 578.75 344.54 578.62 343.27 578.49 C 344.12 582.31 345.00 586.13 346.09 589.90 C 345.20 588.18 344.20 586.51 343.22 584.84 C 341.53 580.93 340.52 577.01 340.09 572.77 Z" id="p66" />
<path d="M 335.30 573.81 C 336.99 577.46 338.90 580.82 339.12 584.94 C 339.25 588.61 338.62 592.32 338.53 596.00 C 338.29 601.19 339.03 606.17 339.65 611.29 C 340.24 617.02 341.39 622.64 342.75 628.23 C 344.54 637.82 346.91 647.31 348.94 656.87 C 350.80 665.58 353.18 674.15 356.66 682.37 C 359.91 690.04 363.50 697.55 366.84 705.18 C 371.08 714.45 374.01 723.83 379.51 732.52 C 385.85 743.34 394.15 753.65 399.00 765.13 C 396.80 761.95 394.63 758.76 392.67 755.43 C 387.10 746.11 380.56 737.29 375.24 727.85 C 371.35 720.93 368.68 713.70 365.75 706.36 C 362.65 698.58 358.73 691.20 355.64 683.41 C 351.03 672.35 348.40 660.83 345.90 649.16 C 342.19 633.98 338.75 618.79 337.02 603.24 C 335.98 593.43 336.88 583.50 335.30 573.81 Z" id="p67" />
<path d="M 347.08 578.93 C 349.59 581.04 352.13 582.62 355.13 583.96 C 358.13 585.37 361.23 586.60 364.35 587.75 C 359.85 587.57 355.35 587.45 350.85 587.16 C 349.95 595.63 352.08 603.86 351.54 612.39 C 351.06 610.38 350.50 608.40 349.95 606.41 C 349.17 600.76 347.99 595.28 346.09 589.90 C 345.00 586.13 344.12 582.31 343.27 578.49 C 344.54 578.62 345.81 578.75 347.08 578.93 Z" id="p68" />
<path d="M 340.13 581.09 C 341.18 582.31 342.23 583.56 343.22 584.84 C 344.20 586.51 345.20 588.18 346.09 589.90 C 347.99 595.28 349.17 600.76 349.95 606.41 C 348.99 604.21 347.93 602.05 346.89 599.88 C 344.75 601.99 342.70 603.79 342.02 606.88 C 340.35 613.59 342.64 621.29 342.75 628.23 C 341.39 622.64 340.24 617.02 339.65 611.29 C 339.38 605.56 340.69 600.19 341.72 594.61 C 342.61 589.79 341.24 585.70 340.13 581.09 Z" id="p69" />
<path d="M 346.89 599.88 C 347.93 602.05 348.99 604.21 349.95 606.41 C 350.50 608.40 351.06 610.38 351.54 612.39 C 353.70 623.63 357.86 634.11 362.47 644.53 C 368.68 658.83 371.43 674.05 377.69 688.33 C 382.02 698.71 387.76 708.29 392.58 718.43 C 396.52 726.67 400.59 734.69 405.71 742.29 C 410.97 750.30 416.95 757.68 422.63 765.39 C 429.81 774.97 435.98 785.16 443.39 794.59 C 451.73 805.59 461.38 815.27 470.71 825.39 C 471.13 830.41 474.46 832.91 477.71 836.28 C 483.78 842.18 489.99 848.17 496.88 853.11 C 507.64 860.18 520.00 864.37 533.00 863.01 C 547.61 861.31 562.00 862.22 576.70 861.80 C 583.28 861.86 589.83 861.84 596.39 862.36 C 590.08 866.66 581.45 868.79 576.22 874.23 C 574.75 875.73 573.55 879.88 576.26 880.75 C 580.89 882.84 585.64 884.74 590.33 886.70 C 592.66 887.76 594.88 886.36 597.20 885.85 C 599.91 884.90 602.17 885.88 604.84 886.49 C 596.22 889.80 587.19 891.99 578.00 892.88 C 562.53 894.69 547.70 892.19 532.86 887.94 C 517.81 883.58 501.36 879.27 487.94 871.07 C 477.92 865.18 469.66 857.69 461.04 849.96 C 448.91 838.39 436.02 826.31 426.17 812.72 C 420.38 804.79 415.86 796.36 411.29 787.71 C 407.23 780.16 403.13 772.64 399.00 765.13 C 394.15 753.65 385.85 743.34 379.51 732.52 C 374.01 723.83 371.08 714.45 366.84 705.18 C 363.50 697.55 359.91 690.04 356.66 682.37 C 353.18 674.15 350.80 665.58 348.94 656.87 C 346.91 647.31 344.54 637.82 342.75 628.23 C 342.64 621.29 340.35 613.59 342.02 606.88 C 342.70 603.79 344.75 601.99 346.89 599.88 Z" id="p70" />
<path d="M 545.06 666.67 C 552.87 666.20 560.68 666.03 568.31 667.96 C 578.83 670.38 588.29 675.28 598.82 677.48 C 607.17 679.32 615.40 679.82 623.97 680.33 C 634.11 680.81 645.11 679.47 654.66 683.59 C 663.14 687.55 667.96 695.62 669.25 704.71 C 669.44 711.60 669.64 718.50 669.47 725.39 C 662.69 725.57 655.59 725.91 648.85 725.22 C 639.74 721.67 629.93 717.28 620.03 717.25 C 602.84 716.78 584.99 719.84 568.12 722.97 C 556.03 724.99 544.06 726.92 531.75 726.68 C 547.05 725.34 562.18 723.28 577.25 720.29 C 587.99 718.20 598.84 716.98 609.73 716.00 C 615.38 715.93 621.08 715.97 626.70 716.48 C 635.59 717.33 643.82 722.08 652.89 720.05 C 657.69 718.83 662.74 717.30 666.97 714.70 C 667.98 710.60 667.10 705.86 666.16 701.80 C 664.76 696.30 662.68 690.62 657.92 687.13 C 654.31 684.40 650.27 683.64 645.91 682.94 C 632.85 681.25 619.44 682.23 606.38 680.58 C 598.63 679.64 591.55 677.32 584.17 674.90 C 576.82 672.50 570.24 669.62 562.50 668.56 C 553.05 667.18 543.79 668.33 534.25 669.05 C 529.38 669.24 524.59 668.79 519.74 668.71 C 528.19 668.15 536.64 667.50 545.06 666.67 Z" id="p71" />
<path d="M 562.50 668.56 C 570.24 669.62 576.82 672.50 584.17 674.90 C 591.55 677.32 598.63 679.64 606.38 680.58 C 619.44 682.23 632.85 681.25 645.91 682.94 C 651.37 685.02 657.14 687.47 660.63 692.41 C 663.22 695.99 665.46 701.00 664.71 705.50 C 661.40 708.16 656.35 708.73 652.58 710.77 C 649.88 712.16 647.51 714.46 644.68 715.51 C 641.23 716.15 637.43 715.47 633.94 715.27 C 625.85 714.56 617.77 714.95 609.73 716.00 C 598.84 716.98 587.99 718.20 577.25 720.29 C 562.18 723.28 547.05 725.34 531.75 726.68 C 528.16 726.92 524.61 727.35 521.00 727.31 C 504.33 727.32 487.67 727.25 471.00 727.33 C 467.36 727.38 463.85 727.18 460.24 726.67 C 451.61 724.60 443.29 724.61 434.53 725.67 C 434.37 724.74 434.22 723.81 434.07 722.87 C 431.32 724.41 428.63 726.02 425.98 727.72 C 424.67 724.90 423.30 722.11 421.86 719.36 C 419.54 720.15 417.22 720.95 414.90 721.74 C 413.18 717.27 411.86 712.94 412.93 708.10 C 414.25 700.96 419.09 692.61 426.53 690.60 C 432.88 688.98 440.61 691.16 447.05 691.87 C 455.97 693.08 464.99 692.18 473.03 687.95 C 480.90 683.80 487.49 678.12 495.97 674.91 C 508.62 669.75 520.94 670.60 534.25 669.05 C 543.79 668.33 553.05 667.18 562.50 668.56 Z M 426.15 723.55 C 425.34 724.17 425.34 724.80 426.13 725.43 C 427.93 725.80 427.95 723.20 426.15 723.55 Z" id="p72" />
<path d="M 519.74 668.71 C 524.59 668.79 529.38 669.24 534.25 669.05 C 520.94 670.60 508.62 669.75 495.97 674.91 C 487.49 678.12 480.90 683.80 473.03 687.95 C 464.99 692.18 455.97 693.08 447.05 691.87 C 440.61 691.16 432.88 688.98 426.53 690.60 C 419.09 692.61 414.25 700.96 412.93 708.10 C 411.86 712.94 413.18 717.27 414.90 721.74 C 417.22 720.95 419.54 720.15 421.86 719.36 C 423.30 722.11 424.67 724.90 425.98 727.72 C 428.63 726.02 431.32 724.41 434.07 722.87 C 434.22 723.81 434.37 724.74 434.53 725.67 C 443.29 724.61 451.61 724.60 460.24 726.67 C 453.53 727.09 446.89 727.38 440.17 727.41 C 437.84 727.50 435.12 727.37 432.91 728.20 C 430.73 729.06 428.71 730.58 426.77 731.89 C 425.71 730.81 424.65 729.72 423.59 728.64 C 421.60 729.27 419.49 730.11 417.40 730.25 C 416.02 729.45 414.81 728.24 413.68 727.13 C 411.20 720.09 411.12 712.91 411.48 705.55 C 413.47 699.25 416.25 692.91 422.17 689.38 C 427.67 686.26 434.76 687.67 440.67 688.62 C 446.40 689.71 452.21 689.87 458.03 689.64 C 464.19 689.44 470.13 687.31 475.50 684.39 C 482.10 680.82 487.44 676.23 494.38 673.40 C 502.54 670.07 511.06 669.42 519.74 668.71 Z" id="p73" />
<path d="M 645.91 682.94 C 650.27 683.64 654.31 684.40 657.92 687.13 C 662.68 690.62 664.76 696.30 666.16 701.80 C 667.10 705.86 667.98 710.60 666.97 714.70 C 662.74 717.30 657.69 718.83 652.89 720.05 C 643.82 722.08 635.59 717.33 626.70 716.48 C 621.08 715.97 615.38 715.93 609.73 716.00 C 617.77 714.95 625.85 714.56 633.94 715.27 C 637.43 715.47 641.23 716.15 644.68 715.51 C 647.51 714.46 649.88 712.16 652.58 710.77 C 656.35 708.73 661.40 708.16 664.71 705.50 C 665.46 701.00 663.22 695.99 660.63 692.41 C 657.14 687.47 651.37 685.02 645.91 682.94 Z" id="p74" />
<path d="M 669.25 704.71 C 670.88 711.66 671.46 718.71 672.45 725.76 C 672.30 727.04 672.13 728.33 671.95 729.62 C 666.59 729.09 661.20 728.87 655.85 728.30 C 653.47 727.36 651.19 726.23 648.85 725.22 C 655.59 725.91 662.69 725.57 669.47 725.39 C 669.64 718.50 669.44 711.60 669.25 704.71 Z" id="p75" />
<path d="M 411.48 705.55 C 411.12 712.91 411.20 720.09 413.68 727.13 C 414.42 729.43 415.19 731.73 416.07 733.98 C 417.26 736.95 419.26 739.26 421.47 741.51 C 423.67 739.67 425.93 737.88 428.09 735.98 C 427.37 739.89 426.74 743.80 425.72 747.65 C 423.20 746.06 420.81 744.38 418.88 742.07 C 415.14 734.82 411.79 727.79 410.36 719.68 C 409.32 714.53 409.66 710.45 411.48 705.55 Z" id="p76" />
<path d="M 426.15 723.55 C 427.95 723.20 427.93 725.80 426.13 725.43 C 425.34 724.80 425.34 724.17 426.15 723.55 Z" id="p77" />
<path d="M 672.45 725.76 C 673.07 728.84 673.80 731.91 674.41 735.00 C 668.15 732.90 661.94 730.89 655.85 728.30 C 661.20 728.87 666.59 729.09 671.95 729.62 C 672.13 728.33 672.30 727.04 672.45 725.76 Z" id="p78" />
<path d="M 413.68 727.13 C 414.81 728.24 416.02 729.45 417.40 730.25 C 419.49 730.11 421.60 729.27 423.59 728.64 C 424.65 729.72 425.71 730.81 426.77 731.89 C 428.71 730.58 430.73 729.06 432.91 728.20 C 435.12 727.37 437.84 727.50 440.17 727.41 C 436.31 728.54 432.96 730.39 429.84 732.91 C 426.32 733.99 422.67 734.57 419.12 735.56 C 418.11 735.03 417.09 734.50 416.07 733.98 C 415.19 731.73 414.42 729.43 413.68 727.13 Z" id="p79" />
<path d="M 429.84 732.91 L 429.44 733.61 C 428.99 734.40 428.54 735.19 428.09 735.98 C 425.93 737.88 423.67 739.67 421.47 741.51 C 419.26 739.26 417.26 736.95 416.07 733.98 C 417.09 734.50 418.11 735.03 419.12 735.56 C 422.67 734.57 426.32 733.99 429.84 732.91 Z" id="p80" />
<path d="M 429.44 733.61 C 427.72 742.19 431.04 749.12 431.93 757.43 C 424.91 754.35 422.36 748.37 418.88 742.07 C 420.81 744.38 423.20 746.06 425.72 747.65 C 426.74 743.80 427.37 739.89 428.09 735.98 C 428.54 735.19 428.99 734.40 429.44 733.61 Z" id="p81" />
<path d="M 586.77 769.74 C 584.43 772.80 581.83 775.48 578.48 777.43 C 579.24 775.32 579.98 773.20 580.74 771.09 C 576.43 770.79 572.15 770.63 567.84 770.94 C 574.31 769.30 580.13 767.47 586.77 769.74 Z" id="p82" />
<path d="M 580.74 771.09 C 579.98 773.20 579.24 775.32 578.48 777.43 C 574.07 780.00 569.75 782.71 565.40 785.37 C 560.84 788.13 555.97 790.11 551.09 792.18 C 553.65 790.39 556.19 788.57 558.87 786.96 C 563.24 784.70 567.68 782.78 571.46 779.47 C 573.48 777.70 574.25 775.44 575.36 773.07 C 569.47 772.14 563.66 772.56 557.76 773.08 C 561.13 772.47 564.48 771.64 567.84 770.94 C 572.15 770.63 576.43 770.79 580.74 771.09 Z" id="p83" />
<path d="M 575.36 773.07 C 574.25 775.44 573.48 777.70 571.46 779.47 C 567.68 782.78 563.24 784.70 558.87 786.96 C 563.41 783.97 566.74 780.65 569.30 775.82 C 561.67 772.82 555.04 775.11 547.07 775.18 L 546.94 773.92 C 550.55 773.72 554.16 773.50 557.76 773.08 C 563.66 772.56 569.47 772.14 575.36 773.07 Z" id="p84" />
<path d="M 546.94 773.92 L 547.07 775.18 C 542.45 775.39 537.84 775.66 533.24 776.08 C 528.48 776.22 523.73 776.25 518.99 776.78 C 511.60 777.62 504.26 777.35 496.85 777.58 C 500.13 780.31 503.20 783.15 506.08 786.30 C 499.17 783.81 493.02 779.86 487.52 775.02 C 497.85 773.83 507.69 775.34 518.00 775.31 C 527.64 775.44 537.28 774.35 546.94 773.92 Z" id="p85" />
<path d="M 569.30 775.82 C 566.74 780.65 563.41 783.97 558.87 786.96 C 556.19 788.57 553.65 790.39 551.09 792.18 C 544.41 796.04 538.04 800.34 529.95 799.74 C 524.50 799.85 520.64 796.97 516.55 793.81 C 513.42 788.85 509.16 785.07 505.28 780.75 C 514.47 778.61 523.92 777.59 533.24 776.08 C 537.84 775.66 542.45 775.39 547.07 775.18 C 555.04 775.11 561.67 772.82 569.30 775.82 Z M 512.76 783.20 C 516.98 788.66 522.82 795.51 529.75 797.28 C 535.46 798.44 542.16 794.79 546.92 791.91 C 550.13 789.87 553.41 787.76 556.20 785.16 C 558.32 783.26 558.65 780.73 559.45 778.13 C 551.10 775.11 542.97 776.24 534.41 777.53 C 527.11 779.05 519.82 780.79 512.76 783.20 Z" id="p86" />
<path d="M 533.24 776.08 C 523.92 777.59 514.47 778.61 505.28 780.75 C 509.16 785.07 513.42 788.85 516.55 793.81 C 512.87 791.54 509.38 789.10 506.08 786.30 C 503.20 783.15 500.13 780.31 496.85 777.58 C 504.26 777.35 511.60 777.62 518.99 776.78 C 523.73 776.25 528.48 776.22 533.24 776.08 Z" id="p87" />
<path d="M 559.45 778.13 C 558.65 780.73 558.32 783.26 556.20 785.16 C 553.41 787.76 550.13 789.87 546.92 791.91 C 542.16 794.79 535.46 798.44 529.75 797.28 C 522.82 795.51 516.98 788.66 512.76 783.20 C 519.82 780.79 527.11 779.05 534.41 777.53 C 542.97 776.24 551.10 775.11 559.45 778.13 Z" id="p88" />
<path d="M 635.34 817.49 C 634.83 819.97 634.14 821.46 632.15 823.10 C 625.25 828.91 618.03 834.35 611.13 840.16 C 605.44 845.00 599.17 848.90 593.05 853.16 C 587.95 856.80 581.89 858.28 576.70 861.80 C 562.00 862.22 547.61 861.31 533.00 863.01 C 520.00 864.37 507.64 860.18 496.88 853.11 C 489.99 848.17 483.78 842.18 477.71 836.28 C 474.46 832.91 471.13 830.41 470.71 825.39 C 475.21 829.39 479.58 833.54 484.10 837.51 C 486.04 840.11 488.01 842.50 490.91 844.07 C 497.55 847.85 505.04 851.02 512.85 850.00 C 521.25 848.97 529.35 846.87 537.87 846.46 C 543.36 846.26 548.46 844.60 553.94 844.77 C 561.61 845.03 569.28 845.62 576.91 846.52 C 581.84 847.06 586.73 847.69 591.66 846.76 C 598.43 845.45 604.18 842.44 610.03 838.95 C 609.38 838.56 608.72 838.17 608.06 837.78 C 617.95 831.93 626.55 824.82 635.34 817.49 Z" id="p89" />
<path d="M 544.92 829.32 C 549.03 829.09 553.62 829.05 557.52 830.49 C 566.13 833.51 574.22 839.97 583.03 842.13 C 587.99 843.19 593.40 842.71 598.45 842.58 C 595.10 844.25 591.84 845.60 588.00 845.12 C 575.76 844.16 563.71 835.70 551.79 833.02 C 546.80 831.92 541.95 833.10 537.46 835.34 C 530.64 838.69 524.85 843.95 517.48 846.24 C 512.23 847.90 507.03 847.91 501.76 846.32 C 506.02 846.60 510.53 846.82 514.65 845.54 C 521.53 843.54 527.10 838.84 532.76 834.67 C 536.43 832.04 540.25 829.50 544.92 829.32 Z" id="p90" />
<path d="M 551.79 833.02 C 563.71 835.70 575.76 844.16 588.00 845.12 C 591.84 845.60 595.10 844.25 598.45 842.58 C 601.73 841.15 604.95 839.57 608.06 837.78 C 608.72 838.17 609.38 838.56 610.03 838.95 C 604.18 842.44 598.43 845.45 591.66 846.76 C 586.73 847.69 581.84 847.06 576.91 846.52 C 569.28 845.62 561.61 845.03 553.94 844.77 C 548.46 844.60 543.36 846.26 537.87 846.46 C 529.35 846.87 521.25 848.97 512.85 850.00 C 505.04 851.02 497.55 847.85 490.91 844.07 C 488.01 842.50 486.04 840.11 484.10 837.51 C 489.84 840.97 495.24 844.49 501.76 846.32 C 507.03 847.91 512.23 847.90 517.48 846.24 C 524.85 843.95 530.64 838.69 537.46 835.34 C 541.95 833.10 546.80 831.92 551.79 833.02 Z" id="p91" />
</defs>
<g stroke-width="10pt">
<use stroke="#fcfcfc" xlink:href="#p0" />
<use stroke="#c3c3c3" xlink:href="#p1" />
<use stroke="#1d1d1d" xlink:href="#p2" />
<use stroke="#9d9d9d" xlink:href="#p3" />
<use stroke="#808080" xlink:href="#p4" />
<use stroke="#3e3e3e" xlink:href="#p5" />
<use stroke="#151515" xlink:href="#p6" />
<use stroke="#5a5a5a" xlink:href="#p7" />
<use stroke="#1f1f1f" xlink:href="#p8" />
<use stroke="#0d0d0d" xlink:href="#p9" />
<use stroke="#1e1e1e" xlink:href="#p10" />
<use stroke="#1e1e1e" xlink:href="#p11" />
<use stroke="#dddddd" xlink:href="#p12" />
<use stroke="#606060" xlink:href="#p13" />
<use stroke="#0b0b0b" xlink:href="#p14" />
<use stroke="#454545" xlink:href="#p15" />
<use stroke="#0c0c0c" xlink:href="#p16" />
<use stroke="#0c0c0c" xlink:href="#p17" />
<use stroke="#0c0c0c" xlink:href="#p18" />
<use stroke="#232323" xlink:href="#p19" />
<use stroke="#0d0d0d" xlink:href="#p20" />
<use stroke="#fcfcfc" xlink:href="#p21" />
<use stroke="#3c3c3c" xlink:href="#p22" />
<use stroke="#0c0c0c" xlink:href="#p23" />
<use stroke="#050505" xlink:href="#p24" />
<use stroke="#4e4e4e" xlink:href="#p25" />
<use stroke="#dbdbdb" xlink:href="#p26" />
<use stroke="#d5d5d5" xlink:href="#p27" />
<use stroke="#b3b3b3" xlink:href="#p28" />
<use stroke="#919191" xlink:href="#p29" />
<use stroke="#b5b5b5" xlink:href="#p30" />
<use stroke="#424242" xlink:href="#p31" />
<use stroke="#cacaca" xlink:href="#p32" />
<use stroke="#a3a3a3" xlink:href="#p33" />
<use stroke="#666666" xlink:href="#p34" />
<use stroke="#686868" xlink:href="#p35" />
<use stroke="#858585" xlink:href="#p36" />
<use stroke="#393939" xlink:href="#p37" />
<use stroke="#b0b0b0" xlink:href="#p38" />
<use stroke="#e2e2e2" xlink:href="#p39" />
<use stroke="#0c0c0c" xlink:href="#p40" />
<use stroke="#555555" xlink:href="#p41" />
<use stroke="#b8b8b8" xlink:href="#p42" />
<use stroke="#666666" xlink:href="#p43" />
<use stroke="#b4b4b4" xlink:href="#p44" />
<use stroke="#121212" xlink:href="#p45" />
<use stroke="#8b8b8b" xlink:href="#p46" />
<use stroke="#5c5c5c" xlink:href="#p47" />
<use stroke="#d5d5d5" xlink:href="#p48" />
<use stroke="#898989" xlink:href="#p49" />
<use stroke="#484848" xlink:href="#p50" />
<use stroke="#505050" xlink:href="#p51" />
<use stroke="#b5b5b5" xlink:href="#p52" />
<use stroke="#323232" xlink:href="#p53" />
<use stroke="#fcfcfc" xlink:href="#p54" />
<use stroke="#3d3d3d" xlink:href="#p55" />
<use stroke="#a5a5a5" xlink:href="#p56" />
<use stroke="#323232" xlink:href="#p57" />
<use stroke="#fcfcfc" xlink:href="#p58" />
<use stroke="#979797" xlink:href="#p59" />
<use stroke="#242424" xlink:href="#p60" />
<use stroke="#808080" xlink:href="#p61" />
<use stroke="#313131" xlink:href="#p62" />
<use stroke="#c7c7c7" xlink:href="#p63" />
<use stroke="#5f5f5f" xlink:href="#p64" />
<use stroke="#3f3f3f" xlink:href="#p65" />
<use stroke="#8a8a8a" xlink:href="#p66" />
<use stroke="#858585" xlink:href="#p67" />
<use stroke="#d2d2d2" xlink:href="#p68" />
<use stroke="#232323" xlink:href="#p69" />
<use stroke="#111111" xlink:href="#p70" />
<use stroke="#7b7b7b" xlink:href="#p71" />
<use stroke="#2c2c2c" xlink:href="#p72" />
<use stroke="#5b5b5b" xlink:href="#p73" />
<use stroke="#454545" xlink:href="#p74" />
<use stroke="#b4b4b4" xlink:href="#p75" />
<use stroke="#c9c9c9" xlink:href="#p76" />
<use stroke="#4c4c4c" xlink:href="#p77" />
<use stroke="#cecece" xlink:href="#p78" />
<use stroke="#828282" xlink:href="#p79" />
<use stroke="#a9a9a9" xlink:href="#p80" />
<use stroke="#e6e6e6" xlink:href="#p81" />
<use stroke="#d0d0d0" xlink:href="#p82" />
<use stroke="#b3b3b3" xlink:href="#p83" />
<use stroke="#8a8a8a" xlink:href="#p84" />
<use stroke="#bebebe" xlink:href="#p85" />
<use stroke="#545454" xlink:href="#p86" />
<use stroke="#868686" xlink:href="#p87" />
<use stroke="#2c2c2c" xlink:href="#p88" />
<use stroke="#202020" xlink:href="#p89" />
<use stroke="#616161" xlink:href="#p90" />
<use stroke="#2f2f2f" xlink:href="#p91" />
</g>
<g>
<use fill="#fcfcfc" xlink:href="#p0" />
<use fill="#c3c3c3" xlink:href="#p1" />
<use fill="#1d1d1d" xlink:href="#p2" />
<use fill="#9d9d9d" xlink:href="#p3" />
<use fill="#808080" xlink:href="#p4" />
<use fill="#3e3e3e" xlink:href="#p5" />
<use fill="#151515" xlink:href="#p6" />
<use fill="#5a5a5a" xlink:href="#p7" />
<use fill="#1f1f1f" xlink:href="#p8" />
<use fill="#0d0d0d" xlink:href="#p9" />
<use fill="#1e1e1e" xlink:href="#p10" />
<use fill="#1e1e1e" xlink:href="#p11" />
<use fill="#dddddd" xlink:href="#p12" />
<use fill="#606060" xlink:href="#p13" />
<use fill="#0b0b0b" xlink:href="#p14" />
<use fill="#454545" xlink:href="#p15" />
<use fill="#0c0c0c" xlink:href="#p16" />
<use fill="#0c0c0c" xlink:href="#p17" />
<use fill="#0c0c0c" xlink:href="#p18" />
<use fill="#232323" xlink:href="#p19" />
<use fill="#0d0d0d" xlink:href="#p20" />
<use fill="#fcfcfc" xlink:href="#p21" />
<use fill="#3c3c3c" xlink:href="#p22" />
<use fill="#0c0c0c" xlink:href="#p23" />
<use fill="#050505" xlink:href="#p24" />
<use fill="#4e4e4e" xlink:href="#p25" />
<use fill="#dbdbdb" xlink:href="#p26" />
<use fill="#d5d5d5" xlink:href="#p27" />
<use fill="#b3b3b3" xlink:href="#p28" />
<use fill="#919191" xlink:href="#p29" />
<use fill="#b5b5b5" xlink:href="#p30" />
<use fill="#424242" xlink:href="#p31" />
<use fill="#cacaca" xlink:href="#p32" />
<use fill="#a3a3a3" xlink:href="#p33" />
<use fill="#666666" xlink:href="#p34" />
<use fill="#686868" xlink:href="#p35" />
<use fill="#858585" xlink:href="#p36" />
<use fill="#393939" xlink:href="#p37" />
<use fill="#b0b0b0" xlink:href="#p38" />
<use fill="#e2e2e2" xlink:href="#p39" />
<use fill="#0c0c0c" xlink:href="#p40" />
<use fill="#555555" xlink:href="#p41" />
<use fill="#b8b8b8" xlink:href="#p42" />
<use fill="#666666" xlink:href="#p43" />
<use fill="#b4b4b4" xlink:href="#p44" />
<use fill="#121212" xlink:href="#p45" />
<use fill="#8b8b8b" xlink:href="#p46" />
<use fill="#5c5c5c" xlink:href="#p47" />
<use fill="#d5d5d5" xlink:href="#p48" />
<use fill="#898989" xlink:href="#p49" />
<use fill="#484848" xlink:href="#p50" />
<use fill="#505050" xlink:href="#p51" />
<use fill="#b5b5b5" xlink:href="#p52" />
<use fill="#323232" xlink:href="#p53" />
<use fill="#fcfcfc" xlink:href="#p54" />
<use fill="#3d3d3d" xlink:href="#p55" />
<use fill="#a5a5a5" xlink:href="#p56" />
<use fill="#323232" xlink:href="#p57" />
<use fill="#fcfcfc" xlink:href="#p58" />
<use fill="#979797" xlink:href="#p59" />
<use fill="#242424" xlink:href="#p60" />
<use fill="#808080" xlink:href="#p61" />
<use fill="#313131" xlink:href="#p62" />
<use fill="#c7c7c7" xlink:href="#p63" />
<use fill="#5f5f5f" xlink:href="#p64" />
<use fill="#3f3f3f" xlink:href="#p65" />
<use fill="#8a8a8a" xlink:href="#p66" />
<use fill="#858585" xlink:href="#p67" />
<use fill="#d2d2d2" xlink:href="#p68" />
<use fill="#232323" xlink:href="#p69" />
<use fill="#111111" xlink:href="#p70" />
<use fill="#7b7b7b" xlink:href="#p71" />
<use fill="#2c2c2c" xlink:href="#p72" />
<use fill="#5b5b5b" xlink:href="#p73" />
<use fill="#454545" xlink:href="#p74" />
<use fill="#b4b4b4" xlink:href="#p75" />
<use fill="#c9c9c9" xlink:href="#p76" />
<use fill="#4c4c4c" xlink:href="#p77" />
<use fill="#cecece" xlink:href="#p78" />
<use fill="#828282" xlink:href="#p79" />
<use fill="#a9a9a9" xlink:href="#p80" />
<use fill="#e6e6e6" xlink:href="#p81" />
<use fill="#d0d0d0" xlink:href="#p82" />
<use fill="#b3b3b3" xlink:href="#p83" />
<use fill="#8a8a8a" xlink:href="#p84" />
<use fill="#bebebe" xlink:href="#p85" />
<use fill="#545454" xlink:href="#p86" />
<use fill="#868686" xlink:href="#p87" />
<use fill="#2c2c2c" xlink:href="#p88" />
<use fill="#202020" xlink:href="#p89" />
<use fill="#616161" xlink:href="#p90" />
<use fill="#2f2f2f" xlink:href="#p91" />
</g>
</svg>